<svg xmlns="http://www.w3.org/2000/svg" xmlns:xlink="http://www.w3.org/1999/xlink" width="98.711" height="121" viewBox="0 0 98.711 121">
  <defs>
    <clipPath id="clip-path">
      <rect id="Rectángulo_404332" data-name="Rectángulo 404332" width="82" height="82" transform="translate(-0.306)" fill="none"/>
    </clipPath>
  </defs>
  <g id="Grupo_1103405" data-name="Grupo 1103405" transform="translate(-921 -3804.023)">
    <g id="Grupo_1103385" data-name="Grupo 1103385" transform="translate(-270.5 -156.096)">
      <g id="Grupo_1103240" data-name="Grupo 1103240">
        <g id="Grupo_1103392" data-name="Grupo 1103392">
          <g id="Rectángulo_403454" data-name="Rectángulo 403454" transform="translate(1191.5 3960.119)" fill="#fff" stroke="#5169dd" stroke-width="2" stroke-dasharray="6">
            <rect width="71" height="121" rx="35" stroke="none"/>
            <rect x="1" y="1" width="69" height="119" rx="34" fill="none"/>
          </g>
          <g id="Grupo_1103391" data-name="Grupo 1103391" transform="translate(1208.215 3978.096)">
            <g id="Grupo_1103391-2" data-name="Grupo 1103391" transform="translate(0.302)" clip-path="url(#clip-path)">
              <path id="Trazado_879747" data-name="Trazado 879747" d="M263.871,29.29V42.517l-1.323,1.323-3.968,3.968V29.29H248V24h10.581a5.289,5.289,0,0,1,5.29,5.29" transform="translate(-207.227 -20.032)" fill="#ccd1d9"/>
              <path id="Trazado_879748" data-name="Trazado 879748" d="M63.259,71.152l.291.079V95.422a5.289,5.289,0,0,1-5.29,5.29H13.29A5.289,5.289,0,0,1,8,95.422V29.29A5.289,5.289,0,0,1,13.29,24H23.871v5.29H13.29V95.422H58.26V69.736h.026Z" transform="translate(-6.906 -20.032)" fill="#ccd1d9"/>
              <path id="Trazado_879749" data-name="Trazado 879749" d="M127.807,10.645v5.29H104V9.323A1.327,1.327,0,0,1,105.323,8h21.162a1.327,1.327,0,0,1,1.323,1.323Z" transform="translate(-87.034 -6.677)" fill="#5cd6b3"/>
              <path id="Trazado_879750" data-name="Trazado 879750" d="M74.388,56H40v66.131H84.969V56Z" transform="translate(-33.615 -46.742)" fill="#ffeaa7"/>
              <path id="Trazado_879751" data-name="Trazado 879751" d="M95.807,88v19.456a8.017,8.017,0,0,0-2.751,2.658l-.251.41a11.857,11.857,0,0,0-8.9-4.008A6.613,6.613,0,1,0,77.29,99.9a6.616,6.616,0,0,0,6.613,6.613A11.922,11.922,0,0,0,72,118.42V88Z" transform="translate(-60.325 -73.451)" fill="#e6e9ed"/>
              <path id="Trazado_879752" data-name="Trazado 879752" d="M339.968,120l7.936,7.936-3.968,3.968-3.968-3.968L336,123.968l1.323-1.323Z" transform="translate(-280.678 -100.161)" fill="#ffeaa7"/>
              <path id="Trazado_879753" data-name="Trazado 879753" d="M370.581,109.608a5.616,5.616,0,0,1-1.64,3.968l-1.005,1.005L360,106.645l1.005-1.005a5.608,5.608,0,0,1,9.576,3.968" transform="translate(-300.71 -86.806)" fill="#aab2bd"/>
              <path id="Trazado_879754" data-name="Trazado 879754" d="M139.968,320,136,331.9l11.9-3.968Z" transform="translate(-113.744 -267.095)" fill="#aab2bd"/>
              <path id="Trazado_879755" data-name="Trazado 879755" d="M197.213,288.187h2.658l-11.9,11.9L184,296.123l9.483-9.483a5.269,5.269,0,0,0,3.73,1.547" transform="translate(-153.808 -239.25)" fill="#5cd6b3"/>
              <path id="Trazado_879756" data-name="Trazado 879756" d="M297.194,171.968l-2.209,2.209-3.558,3.558A11.913,11.913,0,0,1,283,181.226h-3L293.226,168Z" transform="translate(-233.937 -140.225)" fill="#5cd6b3"/>
              <rect id="Rectángulo_404326" data-name="Rectángulo 404326" width="41.145" height="5.611" transform="translate(26.218 52.903) rotate(-45)" fill="#fcd770"/>
              <path id="Trazado_879757" data-name="Trazado 879757" d="M87.9,213.226H72V211.9a11.9,11.9,0,0,1,20.8-7.9l-4.47,7.142a3.1,3.1,0,0,0-.463,1.64C87.871,212.935,87.885,213.081,87.9,213.226Z" transform="translate(-60.325 -166.934)" fill="#ef7385"/>
              <path id="Trazado_879758" data-name="Trazado 879758" d="M421.226,184v19.839L408,202.517V189.29Z" transform="translate(-340.775 -153.58)" fill="#5cd6b3"/>
              <path id="Trazado_879759" data-name="Trazado 879759" d="M261.1,207.119v13.226l-.952.635a11.971,11.971,0,0,1-6.626,2.01,12.135,12.135,0,0,1-3-.384l-.291-.079-4.973-1.415h-.026a19.382,19.382,0,0,0-5.29-.767h-2.658A5.283,5.283,0,0,1,232,215.068a2.664,2.664,0,0,1,2.658-2.658h8.28a11.913,11.913,0,0,0,8.425-3.492l3.558-3.558Z" transform="translate(-193.872 -171.408)" fill="#f0d0b4"/>
              <path id="Trazado_879760" data-name="Trazado 879760" d="M183.1,184.78a12.329,12.329,0,0,1,4.325-.78,13.44,13.44,0,0,1,1.627.106l-10.475,10.475-7.909,7.909a3.1,3.1,0,0,1-2.645-2.619c-.013-.145-.026-.291-.026-.436a3.1,3.1,0,0,1,.463-1.64l4.47-7.142.251-.41a8.016,8.016,0,0,1,2.751-2.658,9.737,9.737,0,0,1,1.19-.556Z" transform="translate(-140.453 -153.58)" fill="#f0d0b4"/>
              <path id="Trazado_879761" data-name="Trazado 879761" d="M110.613,120A6.613,6.613,0,1,1,104,126.613,6.613,6.613,0,0,1,110.613,120" transform="translate(-87.034 -100.161)" fill="#f0d0b4"/>
              <path id="Trazado_879762" data-name="Trazado 879762" d="M67.382,34.314l-3.576-1.022,5.587-5.585a6.933,6.933,0,0,0-9.807-9.8L58.2,19.292V9.258a6.621,6.621,0,0,0-6.613-6.613H42.324A2.648,2.648,0,0,0,39.679,0H18.517a2.648,2.648,0,0,0-2.645,2.645H6.613A6.621,6.621,0,0,0,0,9.258V75.39A6.621,6.621,0,0,0,6.613,82H51.582A6.621,6.621,0,0,0,58.2,75.39V52.778a13.358,13.358,0,0,0,9.034-2.1l.565-.377L82,51.721V28.467ZM61.457,19.772a4.289,4.289,0,0,1,6.064,6.067l-.067.066L61.39,19.839ZM59.518,21.71l6.066,6.066-2.1,2.1L57.42,23.807Zm2.1,10.033-4.834,4.834a10.667,10.667,0,0,1-7.284,3.09l10.02-10.022Zm-3.968-3.968-11.9,11.9-4.2,0L55.55,25.677ZM30.42,55l-2.1-2.1,8.731-8.731a6.549,6.549,0,0,0,1.083,3.111Zm9.586-5.846a6.536,6.536,0,0,0,3.112,1.085L34.388,58.97l-2.1-2.1ZM26.312,57.508l.718-2.155,4.91,4.91-2.155.718Zm.668,4.408-2.4.8.8-2.4Zm4.763-35.463a7.936,7.936,0,1,0-12.824,6.239,13.276,13.276,0,0,0-5.693,4.377v-21.2H34.388V33.326a9.3,9.3,0,0,0-1.856,1.717A13.221,13.221,0,0,0,28.688,32.7a7.919,7.919,0,0,0,3.055-6.244m-7.936,5.29a5.29,5.29,0,1,1,5.29-5.29,5.3,5.3,0,0,1-5.29,5.29m0,2.645a10.59,10.59,0,0,1,7.231,2.866l-3.916,6.264a4.394,4.394,0,0,0-.569,1.451H13.226A10.593,10.593,0,0,1,23.807,34.388Zm6.261,13.03a1.754,1.754,0,0,1-.7-2.5l4.72-7.551a6.636,6.636,0,0,1,3.284-2.686l5.968-2.238a10.9,10.9,0,0,1,2.274-.569ZM42.324,5.29h9.258A3.973,3.973,0,0,1,55.55,9.258V21.937L52.9,24.582V7.936H42.324ZM18.517,2.645H39.679v5.29H18.517ZM50.26,10.581V27.228l-1.94,1.94a13.7,13.7,0,0,0-5.912.8l-5.374,2.017V13.226H10.581V47.614H26.837a4.443,4.443,0,0,0,1.323,1.713L25.3,52.191l-4.34,13.019a3.15,3.15,0,0,0-1.468,1.759l-.422,1.272a.817.817,0,0,1-1.4.188l-1.509-2.262a3.045,3.045,0,0,0-5.58,1.688v3.567h2.645V67.855a.415.415,0,0,1,.734-.222l1.509,2.262a3.429,3.429,0,0,0,6.107-.817L22,67.806a.534.534,0,0,1,.973,0l.6,1.808a2.643,2.643,0,0,0,2.51,1.809h6.982V68.776H26.083l-.6-1.811a3.147,3.147,0,0,0-.993-1.431L35.1,62,46.827,50.272a18.446,18.446,0,0,1,3.432.481V74.067H7.936V10.581ZM55.55,75.39a3.973,3.973,0,0,1-3.968,3.968H6.613A3.973,3.973,0,0,1,2.645,75.39V9.258A3.973,3.973,0,0,1,6.613,5.29h9.258V7.936H5.29V76.712H52.9V51.446l2.645.755Zm10.581-27.16-.369.247a10.707,10.707,0,0,1-8.811,1.376L51.97,48.429a21.111,21.111,0,0,0-5.81-.815H43.631a3.958,3.958,0,0,1-3.952-3.953,1.337,1.337,0,0,1,1.337-1.332l8.278-.008a13.323,13.323,0,0,0,9.358-3.874l3.016-3.014,4.464,1.275Zm13.226.569L68.776,47.74V36.606l10.581-4.232Z" transform="translate(-0.228)"/>
              <rect id="Rectángulo_404327" data-name="Rectángulo 404327" width="8" height="4" transform="translate(39.694 12)"/>
              <rect id="Rectángulo_404328" data-name="Rectángulo 404328" width="8" height="2" transform="translate(39.694 19)"/>
              <rect id="Rectángulo_404329" data-name="Rectángulo 404329" width="8" height="3" transform="translate(39.694 24)"/>
              <rect id="Rectángulo_404330" data-name="Rectángulo 404330" width="4" height="4" transform="translate(11.694 49)"/>
              <rect id="Rectángulo_404331" data-name="Rectángulo 404331" width="7" height="3" transform="translate(11.694 55)"/>
            </g>
          </g>
        </g>
      </g>
    </g>
  </g>
</svg>
