<svg xmlns="http://www.w3.org/2000/svg" xmlns:xlink="http://www.w3.org/1999/xlink" width="94.711" height="121" viewBox="0 0 94.711 121">
  <defs>
    <clipPath id="clip-path">
      <rect id="Rect치ngulo_404333" data-name="Rect치ngulo 404333" width="72" height="74" transform="translate(-0.007)" fill="none"/>
    </clipPath>
  </defs>
  <g id="Grupo_1103406" data-name="Grupo 1103406" transform="translate(-1195 -3804.023)">
    <g id="Grupo_1103386" data-name="Grupo 1103386" transform="translate(543 -519.432)">
      <g id="Grupo_1103394" data-name="Grupo 1103394">
        <g id="Rect치ngulo_403454" data-name="Rect치ngulo 403454" transform="translate(652 4323.455)" fill="#fff" stroke="#5169dd" stroke-width="2" stroke-dasharray="6">
          <rect width="71" height="121" rx="35" stroke="none"/>
          <rect x="1" y="1" width="69" height="119" rx="34" fill="none"/>
        </g>
        <g id="Grupo_1103393" data-name="Grupo 1103393" transform="translate(674.938 4343.432)">
          <g id="Grupo_1103393-2" data-name="Grupo 1103393" transform="translate(-0.221)" clip-path="url(#clip-path)">
            <path id="Trazado_879763" data-name="Trazado 879763" d="M10.072,41.962v58.129a4.349,4.349,0,0,0,4.337,4.335H60.279a4.349,4.349,0,0,0,4.337-4.335V74.065l-6.509,5.793V95.544A2.162,2.162,0,0,1,55.951,97.7H18.472a2.161,2.161,0,0,1-2.152-2.151V46.888a2.162,2.162,0,0,1,2.152-2.155l10.453,0V37.622H14.408a4.35,4.35,0,0,0-4.336,4.34" transform="translate(-8.424 -32.209)" fill="#52cbf0" fill-rule="evenodd"/>
            <path id="Trazado_879764" data-name="Trazado 879764" d="M262.695,44.735l7.289,7.284V67.288l6.509-5.793V41.961a4.35,4.35,0,0,0-4.337-4.34h-14.6v7.114h5.138Z" transform="translate(-220.301 -32.208)" fill="#52cbf0" fill-rule="evenodd"/>
            <path id="Trazado_879765" data-name="Trazado 879765" d="M141.1,21.149h16.755V14.035h-4.411a3.967,3.967,0,0,0-7.933,0H141.1Z" transform="translate(-120.604 -8.622)" fill="#ffcb7c" fill-rule="evenodd"/>
            <path id="Trazado_879766" data-name="Trazado 879766" d="M53.5,89.2v48.657A2.161,2.161,0,0,0,55.653,140H93.131a2.162,2.162,0,0,0,2.156-2.151V122.166l-7.987,7.1-10.11,2.709,3.87-9.724L95.287,109.6V94.328H90.154A2.162,2.162,0,0,1,88,92.172V87.044H66.105l-10.453,0A2.162,2.162,0,0,0,53.5,89.2" transform="translate(-45.605 -74.517)" fill="#f9f9f9" fill-rule="evenodd"/>
            <path id="Trazado_879767" data-name="Trazado 879767" d="M293.263,92.2a2.163,2.163,0,0,0,2.156,2.155h5.133l-7.289-7.284V92.2Z" transform="translate(-250.87 -74.541)" fill="#c6c4c8" fill-rule="evenodd"/>
            <path id="Trazado_879768" data-name="Trazado 879768" d="M222.017,331.778l-3.87,9.724,10.11-2.709-3.122-3.51Z" transform="translate(-186.562 -284.042)" fill="#ffcb7c" fill-rule="evenodd"/>
            <path id="Trazado_879769" data-name="Trazado 879769" d="M245.042,198.293l3.118,3.506,11.109-9.86,6.509-5.785,7.62-6.767-3.139-3.526-4.481,3.985-6.509,5.793Z" transform="translate(-209.587 -150.557)" fill="#ffe6c0" fill-rule="evenodd"/>
            <path id="Trazado_879770" data-name="Trazado 879770" d="M266.713,222.782l3.122,3.51,7.987-7.1,6.509-5.793,10.725-9.538-3.1-3.485,0,0-7.62,6.768-6.509,5.785Z" transform="translate(-228.14 -171.54)" fill="#ffcb7c" fill-rule="evenodd"/>
            <path id="Trazado_879771" data-name="Trazado 879771" d="M420.307,157.431l3.139,3.526,0,0,3.1,3.485,2.655-2.362c.037-.033.074-.07.107-.1a2.93,2.93,0,0,0,.132-4.018l-.132-.144-2.23-2.511a2.928,2.928,0,0,0-4.122-.239Z" transform="translate(-359.635 -132.128)" fill="#f46370" fill-rule="evenodd"/>
            <path id="Trazado_879772" data-name="Trazado 879772" d="M70.7,24.872l-2.362-2.655a4.377,4.377,0,0,0-6.167-.359l-2.655,2.361h0L57.441,26.06V9.753a5.794,5.794,0,0,0-5.785-5.789H33.9a5.417,5.417,0,0,0-10.437,0H5.786A5.794,5.794,0,0,0,0,9.753V33.1a1.449,1.449,0,1,0,2.9,0V9.753A2.892,2.892,0,0,1,5.786,6.862H18.853v4.213h-9a3.607,3.607,0,0,0-3.6,3.6V63.335a3.6,3.6,0,0,0,3.6,3.6H47.328a3.607,3.607,0,0,0,3.6-3.6V48.3l3.611-3.212v22.8a2.89,2.89,0,0,1-2.888,2.886H5.786A2.89,2.89,0,0,1,2.9,67.882v-23.3a1.449,1.449,0,1,0-2.9,0v23.3a5.792,5.792,0,0,0,5.786,5.784H51.656a5.791,5.791,0,0,0,5.785-5.784V42.508L67.681,33.4h0l2.655-2.361a4.379,4.379,0,0,0,.359-6.167M38.506,6.862h13.15a2.892,2.892,0,0,1,2.888,2.891V28.638l-3.611,3.212V19.811a1.46,1.46,0,0,0-.425-1.025L43.219,11.5a1.461,1.461,0,0,0-1.024-.424H38.506Zm7.478,11.5H44.35a.716.716,0,0,1-.707-.706V16.024ZM21.751,6.862h2.962a1.449,1.449,0,0,0,1.449-1.449,2.518,2.518,0,0,1,5.035,0,1.449,1.449,0,0,0,1.449,1.449h2.962v4.216l-13.857,0ZM48.035,63.336a.714.714,0,0,1-.707.7H9.849a.712.712,0,0,1-.7-.7V14.679a.714.714,0,0,1,.7-.706h10.4l.055,0H40.745v3.68a3.609,3.609,0,0,0,3.6,3.6h3.684V34.429L34.293,46.653l0,0a1.445,1.445,0,0,0-.3.375l-.009.014c0,.007-.007.015-.01.022-.018.034-.034.069-.049.1,0,.009-.009.017-.012.026L30.4,56.01H14.5a1.449,1.449,0,0,0,0,2.9H31.392a1.463,1.463,0,0,0,.16-.01l.017,0,.036-.006c.045-.007.089-.015.133-.026l.025,0,10.11-2.709h0a1.434,1.434,0,0,0,.293-.115l.019-.009.018-.011c.034-.019.067-.04.1-.062l.025-.015.01-.008a1.432,1.432,0,0,0,.119-.094l0,0,.165-.147,5.41-4.81V63.336Zm-12.3-12.882,1.556,1.75,0,0,0,0,1.557,1.75L33.8,55.313Zm19.338-9.717-.015.013L41.616,52.706l-1.2-1.346,6.52-5.821a1.449,1.449,0,0,0-1.93-2.162l-6.516,5.817L37.3,47.856,50.447,36.163l.011-.011,9.9-8.8,1.211,1.361-7.878,7a1.449,1.449,0,0,0,1.925,2.167l7.88-7,1.18,1.325ZM68.9,27.861a1.455,1.455,0,0,1-.485,1.012l-1.573,1.4L62.52,25.422l1.574-1.4a1.479,1.479,0,0,1,2.074.122L68.53,26.8a1.459,1.459,0,0,1,.365,1.063" transform="translate(0.198)"/>
            <path id="Trazado_879773" data-name="Trazado 879773" d="M92.184,343.2h11.394a1.449,1.449,0,0,0,0-2.9H92.184a1.449,1.449,0,0,0,0,2.9" transform="translate(-77.482 -291.34)"/>
            <path id="Trazado_879774" data-name="Trazado 879774" d="M92.184,294.185h16.883a1.449,1.449,0,0,0,0-2.9H92.184a1.449,1.449,0,0,0,0,2.9" transform="translate(-77.482 -249.377)"/>
            <path id="Trazado_879775" data-name="Trazado 879775" d="M92.184,245.168h25.981a1.449,1.449,0,0,0,0-2.9H92.184a1.449,1.449,0,0,0,0,2.9" transform="translate(-77.482 -207.412)"/>
            <path id="Trazado_879776" data-name="Trazado 879776" d="M92.184,196.18h25.981a1.449,1.449,0,1,0,0-2.9H92.184a1.449,1.449,0,0,0,0,2.9" transform="translate(-77.482 -165.473)"/>
            <path id="Trazado_879777" data-name="Trazado 879777" d="M1.45,262.642A1.449,1.449,0,0,0,2.9,261.193v-.025a1.449,1.449,0,0,0-2.9,0v.025a1.449,1.449,0,0,0,1.449,1.449" transform="translate(0.198 -222.351)"/>
            <path id="Trazado_879778" data-name="Trazado 879778" d="M339.784,272.942l-.021.021a1.449,1.449,0,1,0,2.046,2.053l.021-.021a1.449,1.449,0,0,0-2.046-2.053" transform="translate(-290.316 -233.309)"/>
            <path id="Trazado_879779" data-name="Trazado 879779" d="M92.184,147.164h4.5a1.449,1.449,0,0,0,0-2.9h-4.5a1.449,1.449,0,0,0,0,2.9" transform="translate(-77.482 -123.509)"/>
          </g>
        </g>
      </g>
    </g>
  </g>
</svg>
