<svg xmlns="http://www.w3.org/2000/svg" xmlns:xlink="http://www.w3.org/1999/xlink" width="107" height="107" viewBox="0 0 107 107">
  <defs>
    <clipPath id="clip-path">
      <rect id="Rectángulo_404302" data-name="Rectángulo 404302" width="67.402" height="69.487" fill="#fff"/>
    </clipPath>
  </defs>
  <g id="Grupo_1103357" data-name="Grupo 1103357" transform="translate(-227.711 -3167.5)">
    <g id="Grupo_1102989" data-name="Grupo 1102989">
      <g id="Grupo_1102988" data-name="Grupo 1102988" transform="translate(-25)">
        <g id="Grupo_1103356" data-name="Grupo 1103356">
          <g id="Grupo_156312" data-name="Grupo 156312" transform="translate(-35.957 -1280.937)">
            <path id="Elipse_5845" data-name="Elipse 5845" d="M53.5,0A53.5,53.5,0,1,1,0,53.5,53.5,53.5,0,0,1,53.5,0Z" transform="translate(288.668 4448.437)" fill="#68dd84"/>
          </g>
        </g>
      </g>
    </g>
    <g id="Grupo_1103236" data-name="Grupo 1103236" transform="translate(250.986 3184.166)">
      <g id="Grupo_1103235" data-name="Grupo 1103235" clip-path="url(#clip-path)">
        <path id="Trazado_879695" data-name="Trazado 879695" d="M2.142,65.4v2.123H25.42v1.923H.01V68.373Q.01,46.188,0,24A7.18,7.18,0,0,1,3.4,17.41a7.308,7.308,0,0,1,3.853-1.052c.947-.016,1.894,0,2.921,0V10.3h1.988c.036.629.072,1.267.111,1.96H22.441V4.171l1.949-.091V2.017H10.252V4.086h1.887v4.08h-1.9V6.248H8.265V0h18.2V6.173l-1.955.091V16.356c1.009,0,2.017-.025,3.023.006a7.129,7.129,0,0,1,7.158,7.356c.014,4.809,0,9.618,0,14.428v1.306c4.525-5.112,10.055-7.372,16.65-6.609A17.628,17.628,0,0,1,63.1,39.27,18.46,18.46,0,1,1,34.7,62.866v6.61H27.585V67.563h4.949V65.4Zm30.478-2.2c0-.838.034-1.563-.01-2.284A5.678,5.678,0,0,0,32.334,59a18.527,18.527,0,0,1,.008-15.772A3.1,3.1,0,0,0,32.608,42c.016-6.126-.026-12.253.027-18.379a5.109,5.109,0,0,0-5.243-5.21c-6.685.047-13.369.009-20.054.023a5.915,5.915,0,0,0-1.748.226,4.792,4.792,0,0,0-3.5,5.008q-.007,19.318,0,38.636c0,.286.034.573.054.89Zm.007-12.142A16.378,16.378,0,1,0,49.077,34.728,16.32,16.32,0,0,0,32.626,51.054M12.269,16.285h10.1V14.444h-10.1Z" transform="translate(0)" fill="#fff"/>
        <path id="Trazado_879696" data-name="Trazado 879696" d="M31.309,258.659h22.32V268.7H31.309Zm12.075,2.063H33.406v6.01h9.978Zm2.161,6.017h6.034v-6.021H45.544v6.021" transform="translate(-25.121 -207.538)" fill="#fff"/>
        <path id="Trazado_879697" data-name="Trazado 879697" d="M62.887,167.248a6.065,6.065,0,0,1-6.072-6.095,6.111,6.111,0,1,1,12.221.078,6.067,6.067,0,0,1-6.149,6.017m4.108-6.058a4.068,4.068,0,0,0-8.136-.086,4.068,4.068,0,1,0,8.136.086" transform="translate(-45.586 -124.395)" fill="#fff"/>
        <rect id="Rectángulo_404293" data-name="Rectángulo 404293" width="3.981" height="1.912" transform="translate(5.157 35.823)" fill="#fff"/>
        <rect id="Rectángulo_404294" data-name="Rectángulo 404294" width="3.955" height="1.886" transform="translate(25.568 35.826)" fill="#fff"/>
        <path id="Trazado_879698" data-name="Trazado 879698" d="M45.052,142.292l-1.161,1.346-2.757-2.883,1.217-1.192,2.7,2.729" transform="translate(-33.004 -111.98)" fill="#fff"/>
        <path id="Trazado_879699" data-name="Trazado 879699" d="M116.757,216.052l-2.794-2.948,1.248-1.312,2.748,2.962-1.2,1.3" transform="translate(-91.44 -169.934)" fill="#fff"/>
        <rect id="Rectángulo_404295" data-name="Rectángulo 404295" width="1.888" height="3.98" transform="translate(16.379 24.584)" fill="#fff"/>
        <path id="Trazado_879700" data-name="Trazado 879700" d="M117.174,139.308l1.193,1.26-2.791,2.663L114.437,142l2.737-2.691" transform="translate(-91.82 -111.775)" fill="#fff"/>
        <path id="Trazado_879701" data-name="Trazado 879701" d="M43.762,212.49l1.423,1.4c-.788.73-1.553,1.44-2.32,2.148-.188.173-.382.34-.569.505l-1.338-1.393,2.8-2.664" transform="translate(-32.863 -170.494)" fill="#fff"/>
        <rect id="Rectángulo_404296" data-name="Rectángulo 404296" width="1.958" height="1.916" transform="translate(4.098 22.543)" fill="#fff"/>
        <rect id="Rectángulo_404297" data-name="Rectángulo 404297" width="1.904" height="1.912" transform="translate(8.237 22.538)" fill="#fff"/>
        <path id="Trazado_879702" data-name="Trazado 879702" d="M180.525,192.887l-1.428-1.148c3.366-4.85,11.666-7.4,18.456-3.194a14.263,14.263,0,1,1-15.9,23.66c-6.758-4.976-7.1-13.666-3.909-18.509l1.634.937a12.393,12.393,0,0,0-.647,10.63,11.986,11.986,0,0,0,6.077,6.467,12.238,12.238,0,1,0-4.286-18.843" transform="translate(-141.05 -149.576)" fill="#fff"/>
        <path id="Trazado_879703" data-name="Trazado 879703" d="M238.155,215.492a3.02,3.02,0,0,1-.025,3.365,2.979,2.979,0,0,1-3.179,1.306,3.026,3.026,0,0,1-2.329-2.293,2.938,2.938,0,0,1,1.263-3.186,1.213,1.213,0,0,0,.667-1.253c-.032-1.81-.012-3.621-.012-5.432v-1.013h2.073v6.826l.2.054,2.887-3.061,1.464,1.655-3.006,3.032m-2.533.714a1.044,1.044,0,0,0-1.067.94,1.116,1.116,0,0,0,.994,1.043,1,1,0,0,0,1.034-.965.944.944,0,0,0-.96-1.018" transform="translate(-186.586 -166.078)" fill="#fff"/>
        <rect id="Rectángulo_404298" data-name="Rectángulo 404298" width="1.932" height="1.925" transform="translate(52.034 56.187)" fill="#fff"/>
        <rect id="Rectángulo_404299" data-name="Rectángulo 404299" width="1.928" height="1.932" transform="translate(47.966 56.186)" fill="#fff"/>
        <rect id="Rectángulo_404300" data-name="Rectángulo 404300" width="1.871" height="1.918" transform="translate(43.907 56.174)" fill="#fff"/>
        <rect id="Rectángulo_404301" data-name="Rectángulo 404301" width="6.022" height="1.947" transform="translate(10.246 55.161)" fill="#fff"/>
      </g>
    </g>
  </g>
</svg>
