<svg xmlns="http://www.w3.org/2000/svg" width="14.206" height="14.206" viewBox="0 0 14.206 14.206">
  <g id="Grupo_1103356" data-name="Grupo 1103356" transform="translate(-600 -6576.167)">
    <g id="pildora" transform="translate(620 6566.167)">
      <g id="Grupo_1101792" data-name="Grupo 1101792" transform="translate(-20 10)">
        <path id="Trazado_877285" data-name="Trazado 877285" d="M10.009,0A4.168,4.168,0,0,0,7.041,1.229L1.23,7.041a4.2,4.2,0,1,0,5.935,5.936l5.812-5.811A4.2,4.2,0,0,0,10.009,0ZM4.536,6.474,2.6,8.411a2.246,2.246,0,0,0-.662,1.6.323.323,0,1,1-.646,0,2.885,2.885,0,0,1,.851-2.055L4.08,6.017a.323.323,0,0,1,.457.457Zm7.527-.221L9.386,8.929,5.277,4.82,7.954,2.142a2.906,2.906,0,0,1,4.109,4.11Z" fill="#3b57de"/>
      </g>
    </g>
  </g>
</svg>
