<svg xmlns="http://www.w3.org/2000/svg" xmlns:xlink="http://www.w3.org/1999/xlink" width="187.828" height="117.666" viewBox="0 0 187.828 117.666">
  <defs>
    <clipPath id="clip-path">
      <rect id="Rectángulo_404289" data-name="Rectángulo 404289" width="70.688" height="88.378" fill="#77dc8f"/>
    </clipPath>
  </defs>
  <g id="Grupo_1103360" data-name="Grupo 1103360" transform="translate(8502.711 1200.761)">
    <g id="Grupo_1103353" data-name="Grupo 1103353" transform="translate(-8795.797 -11703.063)">
      <g id="Rectángulo_403454" data-name="Rectángulo 403454" transform="translate(480.914 10509.755) rotate(90)" fill="#fff" stroke="#68dd84" stroke-linecap="round" stroke-width="3" stroke-dasharray="6">
        <rect width="110.213" height="187.828" rx="55" stroke="none"/>
        <rect x="1.5" y="1.5" width="107.213" height="184.828" rx="53.5" fill="none"/>
      </g>
      <path id="Trazado_878134" data-name="Trazado 878134" d="M241.821,76.111h-7.005a1.454,1.454,0,0,1-1.452-1.452V67.653a1.454,1.454,0,0,0-1.452-1.452h-6.868a1.454,1.454,0,0,0-1.452,1.452v7.005a1.454,1.454,0,0,1-1.452,1.452h-7.005a1.454,1.454,0,0,0-1.452,1.452v6.868a1.454,1.454,0,0,0,1.452,1.452h7.005a1.454,1.454,0,0,1,1.452,1.452v7.005a1.454,1.454,0,0,0,1.452,1.452h6.868a1.454,1.454,0,0,0,1.452-1.452V87.336a1.454,1.454,0,0,1,1.452-1.452h7.005a1.454,1.454,0,0,0,1.452-1.452V77.563a1.454,1.454,0,0,0-1.452-1.452" transform="translate(102.301 10436.101)" fill="#77dc8f"/>
      <g id="Grupo_1103217" data-name="Grupo 1103217" transform="translate(374.924 10520.673)">
        <g id="Grupo_1103216" data-name="Grupo 1103216" clip-path="url(#clip-path)">
          <path id="Trazado_879658" data-name="Trazado 879658" d="M58.906,82.486c0,1.386.007,2.586,0,3.786-.013,1.622-.463,2.1-2.04,2.1q-27.442.008-54.883,0c-1.5,0-1.977-.5-1.977-2.029Q0,50.061,0,13.777c0-1.508.49-1.973,2.015-1.99,1.24-.013,2.481,0,3.872,0,0-1.383-.014-2.663,0-3.942.019-1.441.5-1.924,1.925-1.945,1.248-.018,2.5,0,3.962,0,0-1.262-.005-2.49,0-3.718C11.792.464,12.225,0,13.887,0Q41.261,0,68.636,0c1.585,0,2.048.477,2.048,2.093q.006,36.217,0,72.434c0,1.59-.477,2.048-2.082,2.061-1.2.01-2.4,0-3.806,0,0,1.327.011,2.6,0,3.874-.016,1.52-.487,2-1.994,2.014-1.242.015-2.484,0-3.894,0M44.18,14.826H3.047v70.5H55.89V26.514c-2.423,0-4.776-.007-7.129,0-4.916.018-4.6.361-4.582-4.519.011-2.36,0-4.719,0-7.171M8.9,11.784h1.675c11.334,0,22.668.017,34-.024A3.737,3.737,0,0,1,47.506,13q5.1,5.214,10.316,10.314a3.472,3.472,0,0,1,1.1,2.716q-.042,25.908-.02,51.816v1.616h2.849V8.9H8.9Zm5.887-5.892H62.243c2.24,0,2.554.311,2.554,2.529q0,31.789,0,63.578v1.549h2.84V3.014H14.789ZM53.407,23.516l-6.2-6.331v6.331Z" transform="translate(0 0)" fill="#77dc8f"/>
          <path id="Trazado_879659" data-name="Trazado 879659" d="M91.085,126.483l3.5-5.613,2.5,1.423c-1.082,1.767-2.063,3.454-3.135,5.081a1.182,1.182,0,0,0,.13,1.719,13.221,13.221,0,1,1-21.136,15.683,2.069,2.069,0,0,0-2.116-1.169c-2.765.061-5.531.033-8.3.015-1.6-.01-2.021-.4-2.023-1.97-.012-8.031-.029-16.063.028-24.094a8.427,8.427,0,0,1,.738-2.671c.457-1.254,1.026-2.468,1.495-3.718.617-1.649.989-3.535,3.536-2.832v-3.01H63.719a1.541,1.541,0,0,1-1.744-1.725q-.012-4.15,0-8.3a1.539,1.539,0,0,1,1.717-1.749q10.038,0,20.075,0c1.235,0,1.771.647,1.769,1.84-.006,2.677.013,5.355-.007,8.032-.011,1.423-.495,1.872-1.965,1.9-.748.016-1.5,0-2.346,0v2.838a3.528,3.528,0,0,1,1.16.139c.586.292,1.373.595,1.608,1.107a60.187,60.187,0,0,1,2.784,6.935A14.641,14.641,0,0,1,87,120.191c.046,1.468-.426,3.228.229,4.321.6,1,2.4,1.286,3.853,1.971m-7.454,12.033,5.8-9.409c-4.059-3-10.392-1.83-13.6,2.389A10.3,10.3,0,0,0,92.2,144c2.99-3.885,2.767-10.236-.494-12.811-.2.295-.4.58-.588.878-1.851,2.993-3.688,5.994-5.55,8.979-.816,1.308-1.513,1.45-2.73.554-1.828-1.344-3.631-2.722-5.542-4.159l1.749-2.335,4.582,3.41M66.463,127.425c2.819,0,5.539.009,8.258-.009a2.329,2.329,0,0,0,1.273-.22,14.263,14.263,0,0,1,7.963-2.753v-5.776H63.56v14.649c2.519,0,4.924.015,7.328-.02a1.118,1.118,0,0,0,.825-.441c.435-.753.77-1.563,1.214-2.5H66.463Zm-1.478-25.131H82.521V96.57H64.985Zm-.724,13.245H83.305c-.515-1.281-.928-2.457-1.472-3.568a1.461,1.461,0,0,0-1.053-.715q-7.017-.072-14.034-.006a1.327,1.327,0,0,0-1.008.583c-.541,1.159-.961,2.376-1.478,3.707M63.5,140.566h7.517l-.27-4.218H63.5Zm5.913-32.411h8.648V105.43H69.408Z" transform="translate(-44.3 -68.507)" fill="#77dc8f"/>
          <rect id="Rectángulo_404288" data-name="Rectángulo 404288" width="14.566" height="2.824" transform="translate(22.164 53.088)" fill="#77dc8f"/>
        </g>
      </g>
    </g>
  </g>
</svg>
