<svg xmlns="http://www.w3.org/2000/svg" xmlns:xlink="http://www.w3.org/1999/xlink" width="187.828" height="117.666" viewBox="0 0 187.828 117.666">
  <defs>
    <clipPath id="clip-path">
      <rect id="Rect치ngulo_404290" data-name="Rect치ngulo 404290" width="91.197" height="91.122" fill="#68dd84"/>
    </clipPath>
  </defs>
  <g id="Grupo_1103361" data-name="Grupo 1103361" transform="translate(-705.754 -10502.302)">
    <g id="Grupo_1103351" data-name="Grupo 1103351">
      <g id="Rect치ngulo_403454" data-name="Rect치ngulo 403454" transform="translate(893.582 10509.755) rotate(90)" fill="#fff" stroke="#68dd84" stroke-linecap="round" stroke-width="3" stroke-dasharray="6">
        <rect width="110.213" height="187.828" rx="55" stroke="none"/>
        <rect x="1.5" y="1.5" width="107.213" height="184.828" rx="53.5" fill="none"/>
      </g>
      <path id="Trazado_878134" data-name="Trazado 878134" d="M241.821,76.111h-7.005a1.454,1.454,0,0,1-1.452-1.452V67.653a1.454,1.454,0,0,0-1.452-1.452h-6.868a1.454,1.454,0,0,0-1.452,1.452v7.005a1.454,1.454,0,0,1-1.452,1.452h-7.005a1.454,1.454,0,0,0-1.452,1.452v6.868a1.454,1.454,0,0,0,1.452,1.452h7.005a1.454,1.454,0,0,1,1.452,1.452v7.005a1.454,1.454,0,0,0,1.452,1.452h6.868a1.454,1.454,0,0,0,1.452-1.452V87.336a1.454,1.454,0,0,1,1.452-1.452h7.005a1.454,1.454,0,0,0,1.452-1.452V77.563a1.454,1.454,0,0,0-1.452-1.452" transform="translate(514.969 10436.101)" fill="#77dc8f"/>
      <g id="Grupo_1103219" data-name="Grupo 1103219" transform="translate(764.633 10514.098)">
        <g id="Grupo_1103218" data-name="Grupo 1103218" clip-path="url(#clip-path)">
          <path id="Trazado_879660" data-name="Trazado 879660" d="M21.3,53.157V51.391q0-17.923,0-35.847a7.452,7.452,0,0,1,5.326-7.553,9.87,9.87,0,0,1,2.8-.371c2.674-.048,5.35-.038,8.025,0a1.686,1.686,0,0,0,1.594-.811A4.888,4.888,0,0,1,43.1,4.622c1.207-.033,2.416-.03,3.623-.027a4.41,4.41,0,0,0,3.6-1.688A7.468,7.468,0,0,1,62.2,2.974a4.219,4.219,0,0,0,3.366,1.615c1.122.017,2.244.012,3.365.006a5.126,5.126,0,0,1,4.606,2.39,1.4,1.4,0,0,0,1.42.621c2.632-.008,5.267.075,7.9-.02,5.12-.184,8.362,3.7,8.345,8.3-.081,22.345-.043,44.69-.03,67.035,0,3.546-1.442,6.2-4.742,7.583a9.7,9.7,0,0,1-3.66.59q-36.826.049-73.651.016a13.054,13.054,0,0,1-2.439-.2A8,8,0,0,1,.066,83.2c-.081-7.375-.1-14.753.005-22.128a8.175,8.175,0,0,1,8.414-7.911c3.754.015,7.508,0,11.261,0H21.3M75.932,81.975c0-1.3,0-2.494,0-3.693.009-1.938.437-2.373,2.348-2.384,1.232-.007,2.463,0,3.791,0V19.312c0-.3.018-.606-.008-.905a1.538,1.538,0,0,0-1.736-1.646c-1.423-.035-2.847-.011-4.271-.012H74.6c-.056.34-.089.466-.1.594-.14,2.267-.259,2.38-2.538,2.38H41.03c-2.824,0-2.824,0-3.175-2.721,0-.035-.046-.066-.186-.252-1.6,0-3.309-.006-5.023,0-1.888.009-2.238.364-2.239,2.3q-.006,16.368,0,32.737V53.1h1.621c6.644,0,13.287.013,19.931-.006A8.555,8.555,0,0,1,59,56.253a8.737,8.737,0,0,1,1.843,5.784q-.014,9.252,0,18.5v1.435ZM30.347,88.048c7.2,0,14.407-.075,21.608.031a5.54,5.54,0,0,0,5.816-5.805c-.086-6.855-.019-13.712-.031-20.568a5.306,5.306,0,0,0-5.316-5.5q-22-.039-43.993-.021a5.137,5.137,0,0,0-5.316,5.3q-.033,10.672.009,21.345a5.118,5.118,0,0,0,5.356,5.221c7.289-.019,14.578-.007,21.867-.006m28.864-.084a3.61,3.61,0,0,0,.514.079c8.025,0,16.05.025,24.074-.042a4.878,4.878,0,0,0,2.492-.882c1.447-.969,1.813-2.477,1.812-4.185q-.037-33.581-.017-67.162c0-.259,0-.518-.007-.776a4.392,4.392,0,0,0-4.032-4.318c-3.137-.133-6.284-.033-9.495-.033V13.71c2.079,0,4.061-.031,6.042.009a4.38,4.38,0,0,1,4.3,3.28,9.161,9.161,0,0,1,.216,2.307q.017,22.97.009,45.939,0,8.8,0,17.6c0,1.744-.494,2.221-2.248,2.233-1.984.014-3.969.011-5.953.01-5.134,0-10.268-.016-15.4.015a1.555,1.555,0,0,0-1.142.512,18.9,18.9,0,0,0-1.157,2.349M71.4,16.6c0-2.39.077-4.706-.032-7.015a2.153,2.153,0,0,0-2.222-1.955c-1.074-.065-2.155-.064-3.23-.024a7.175,7.175,0,0,1-6.1-2.753,4.414,4.414,0,0,0-7.222.048,6.979,6.979,0,0,1-5.861,2.7c-1.119-.029-2.243-.046-3.36.021A2.115,2.115,0,0,0,41.13,9.937c-.043,1.032-.016,2.068-.018,3.1q0,1.784,0,3.566ZM27.395,53.071V51.392q0-15.968,0-31.936c0-.431-.009-.863.014-1.293a4.412,4.412,0,0,1,4.561-4.45c1.638-.034,3.276,0,4.914-.015a9.075,9.075,0,0,0,.953-.1V10.624c-2.858,0-5.614.1-8.36-.026a4.913,4.913,0,0,0-5.18,5.13c.082,12.024.033,24.049.033,36.073v1.27Zm54.562,26H79.092v2.91h2.865Z" transform="translate(0 0)" fill="#68dd84"/>
          <path id="Trazado_879661" data-name="Trazado 879661" d="M140.927,115.7c2.086-2.921,3.958-5.546,5.834-8.168a12.055,12.055,0,0,1,.932-1.236,1.519,1.519,0,0,1,2-.211,1.41,1.41,0,0,1,.438,1.843,7.7,7.7,0,0,1-.761,1.193q-3.367,4.734-6.746,9.459a1.56,1.56,0,0,1-2.611.286c-1.448-1.412-2.852-2.87-4.287-4.3a1.547,1.547,0,0,1-.406-1.875,1.452,1.452,0,0,1,2.473-.324c1.052,1.013,2.008,2.124,3.136,3.331" transform="translate(-100.174 -78.416)" fill="#68dd84"/>
          <path id="Trazado_879662" data-name="Trazado 879662" d="M136.95,160.228a7.8,7.8,0,0,1-7.4-5.26c-.348-1.019-.07-1.859.721-2.176.892-.357,1.692.024,2.112,1.12a4.835,4.835,0,0,0,9.139,0c.422-1.086,1.224-1.475,2.109-1.117a1.6,1.6,0,0,1,.723,2.184,7.835,7.835,0,0,1-7.407,5.251" transform="translate(-95.911 -113.148)" fill="#68dd84"/>
          <path id="Trazado_879663" data-name="Trazado 879663" d="M208.8,129.024q3.362,0,6.724,0a4.934,4.934,0,0,1,1.031.034,1.465,1.465,0,0,1,1.284,1.413,1.39,1.39,0,0,1-1.126,1.522,4.454,4.454,0,0,1-1.149.105q-6.789.01-13.578,0c-1.559,0-2.374-.563-2.337-1.592.034-.979.808-1.484,2.3-1.486q3.427,0,6.854,0" transform="translate(-147.973 -95.622)" fill="#68dd84"/>
          <path id="Trazado_879664" data-name="Trazado 879664" d="M249.177,155.667c-2.154,0-4.309.012-6.463,0-1.225-.01-1.816-.535-1.792-1.521.024-.937.572-1.427,1.753-1.432q6.528-.027,13.055,0c1.2,0,1.839.578,1.811,1.524s-.66,1.425-1.9,1.432c-2.154.012-4.309,0-6.463,0" transform="translate(-178.563 -113.173)" fill="#68dd84"/>
          <path id="Trazado_879665" data-name="Trazado 879665" d="M145.592,105.134a16.222,16.222,0,0,1,1.779.257,1.448,1.448,0,0,1,1.18,1.716,1.375,1.375,0,0,1-1.577,1.2,6.73,6.73,0,0,0-3.884.508,1.476,1.476,0,1,1-1.2-2.7c1.167-.488,2.412-.788,3.624-1.168l.078.183" transform="translate(-104.508 -77.786)" fill="#68dd84"/>
          <path id="Trazado_879666" data-name="Trazado 879666" d="M203.355,155.668c-.729,0-1.459.029-2.187-.008a1.49,1.49,0,0,1-1.531-1.412,1.438,1.438,0,0,1,1.42-1.507q2.377-.076,4.758,0a1.44,1.44,0,0,1,1.412,1.4,1.485,1.485,0,0,1-1.43,1.512c-.812.049-1.629.011-2.443.011Z" transform="translate(-147.964 -113.18)" fill="#68dd84"/>
          <path id="Trazado_879667" data-name="Trazado 879667" d="M285.044,129.046a12.541,12.541,0,0,1,1.548.012,1.436,1.436,0,0,1,1.391,1.432,1.339,1.339,0,0,1-1.246,1.538,18.69,18.69,0,0,1-3.473.011,1.348,1.348,0,0,1-1.26-1.527,1.474,1.474,0,0,1,1.492-1.466c.513-.041,1.032-.007,1.549-.007v.008" transform="translate(-209.012 -95.63)" fill="#68dd84"/>
          <path id="Trazado_879668" data-name="Trazado 879668" d="M38.558,234.715c1.593,0,3.187-.022,4.78,0a4.12,4.12,0,0,1,4.294,4.319c.03,2.2.035,4.392,0,6.587a4.092,4.092,0,0,1-4.227,4.253q-4.907.057-9.816,0a4,4,0,0,1-4.194-4.123c-.063-2.28-.058-4.564,0-6.845a4.034,4.034,0,0,1,4.262-4.191c1.635-.028,3.271-.005,4.906-.005m-3.173,12.072v-8.993c-.384-.028-.678-.065-.972-.068-1.75-.022-2.012.239-2.015,1.993,0,1.636.05,3.274-.013,4.908-.08,2.095.329,2.313,2.417,2.248a5.412,5.412,0,0,0,.584-.089m3.245-9.052V240.7h5.935c0-.6-.012-1.107,0-1.616a1.153,1.153,0,0,0-1.23-1.336c-1.541-.038-3.084-.011-4.707-.011m-.032,9.147H42c2.534,0,2.647-.113,2.559-2.6a1.4,1.4,0,0,0-.1-.345H38.6Z" transform="translate(-21.752 -173.957)" fill="#68dd84"/>
          <path id="Trazado_879669" data-name="Trazado 879669" d="M140.293,242.3a7.564,7.564,0,0,1-10.5,7.047,2.124,2.124,0,0,0-1.8.013,7.475,7.475,0,0,1-8.5-1.92,7.661,7.661,0,0,1-1.172-8.446,7.253,7.253,0,0,1,7.674-4.093,15.99,15.99,0,0,0,5.8.023,7.382,7.382,0,0,1,8.507,7.376m-12.044.123a4.508,4.508,0,0,0,4.509,4.5,4.559,4.559,0,1,0-.114-9.117,4.5,4.5,0,0,0-4.4,4.615m-1.9-4.3a4.374,4.374,0,0,0-5.079,1.811,4.509,4.509,0,0,0,.4,5.386,4.06,4.06,0,0,0,4.651,1.233,7.745,7.745,0,0,1,.029-8.429" transform="translate(-87.118 -174.019)" fill="#68dd84"/>
          <path id="Trazado_879670" data-name="Trazado 879670" d="M38.67,311.034c2.412,0,4.825.012,7.237-.006a1.629,1.629,0,0,1,1.76,1.014,1.444,1.444,0,0,1-1.016,1.907,5.223,5.223,0,0,1-1.281.1q-6.72.01-13.441,0a6.39,6.39,0,0,1-1.031-.045,1.458,1.458,0,0,1-1.331-1.487,1.434,1.434,0,0,1,1.478-1.469c1.118-.049,2.24-.017,3.36-.018q2.132,0,4.265,0" transform="translate(-21.915 -230.522)" fill="#68dd84"/>
          <path id="Trazado_879671" data-name="Trazado 879671" d="M117.793,311.045c1.42,0,2.841-.021,4.26.008,1.048.021,1.615.537,1.654,1.412a1.455,1.455,0,0,1-1.628,1.582q-4.388.056-8.778,0a1.543,1.543,0,0,1-1.689-1.556c.031-.86.7-1.425,1.791-1.441,1.463-.021,2.926-.005,4.389,0" transform="translate(-82.723 -230.532)" fill="#68dd84"/>
          <path id="Trazado_879672" data-name="Trazado 879672" d="M174.89,311.043c.99,0,1.982-.031,2.971.008a1.453,1.453,0,0,1,1.571,1.505,1.408,1.408,0,0,1-1.479,1.468q-3.033.085-6.07,0a1.488,1.488,0,1,1,.037-2.974c.989-.039,1.981-.009,2.971-.009" transform="translate(-126.268 -230.527)" fill="#68dd84"/>
          <path id="Trazado_879673" data-name="Trazado 879673" d="M204.152,23.376c.862,0,1.725-.026,2.585.006,1.316.05,1.829.524,1.856,1.807q.059,2.778,0,5.557c-.027,1.238-.518,1.732-1.753,1.76-1.852.041-3.706.038-5.558,0-1.236-.025-1.773-.522-1.8-1.72q-.073-2.842,0-5.686c.03-1.133.572-1.615,1.7-1.719.086-.008.172-.006.258-.006h2.715m1.385,3.116H202.61V29.4h2.927Z" transform="translate(-147.82 -17.319)" fill="#68dd84"/>
        </g>
      </g>
    </g>
  </g>
</svg>
