<svg xmlns="http://www.w3.org/2000/svg" xmlns:xlink="http://www.w3.org/1999/xlink" width="187.828" height="117.666" viewBox="0 0 187.828 117.666">
  <defs>
    <clipPath id="clip-path">
      <rect id="Rect치ngulo_404291" data-name="Rect치ngulo 404291" width="67.343" height="89.81" fill="#68dd84"/>
    </clipPath>
  </defs>
  <g id="Grupo_1103362" data-name="Grupo 1103362" transform="translate(-1119.586 -10502.302)">
    <g id="Grupo_1103350" data-name="Grupo 1103350">
      <g id="Rect치ngulo_403454" data-name="Rect치ngulo 403454" transform="translate(1307.414 10509.755) rotate(90)" fill="#fff" stroke="#68dd84" stroke-linecap="round" stroke-width="3" stroke-dasharray="6">
        <rect width="110.213" height="187.828" rx="55" stroke="none"/>
        <rect x="1.5" y="1.5" width="107.213" height="184.828" rx="53.5" fill="none"/>
      </g>
      <path id="Trazado_878134" data-name="Trazado 878134" d="M241.821,76.111h-7.005a1.454,1.454,0,0,1-1.452-1.452V67.653a1.454,1.454,0,0,0-1.452-1.452h-6.868a1.454,1.454,0,0,0-1.452,1.452v7.005a1.454,1.454,0,0,1-1.452,1.452h-7.005a1.454,1.454,0,0,0-1.452,1.452v6.868a1.454,1.454,0,0,0,1.452,1.452h7.005a1.454,1.454,0,0,1,1.452,1.452v7.005a1.454,1.454,0,0,0,1.452,1.452h6.868a1.454,1.454,0,0,0,1.452-1.452V87.336a1.454,1.454,0,0,1,1.452-1.452h7.005a1.454,1.454,0,0,0,1.452-1.452V77.563a1.454,1.454,0,0,0-1.452-1.452" transform="translate(928.801 10436.101)" fill="#68dd84"/>
      <g id="Grupo_1103221" data-name="Grupo 1103221" transform="translate(1198.711 10519.956)">
        <g id="Grupo_1103220" data-name="Grupo 1103220" clip-path="url(#clip-path)">
          <path id="Trazado_879674" data-name="Trazado 879674" d="M0,44.775Q0,26.282,0,7.79C0,2.861,2.835,0,7.725,0q25.948,0,51.9,0c4.838,0,7.719,2.857,7.719,7.663q0,37.241,0,74.482c0,4.8-2.884,7.661-7.723,7.661q-25.948,0-51.9,0C2.839,89.808,0,86.942,0,82.016Q0,63.4,0,44.775m58.923,6.089v-.887q0-19.77,0-39.541a5.359,5.359,0,0,0-.013-.637A1.375,1.375,0,0,0,57.5,8.439c-1.438-.038-2.877-.01-4.188-.01,0,1.459.029,2.809-.006,4.157A4.152,4.152,0,0,1,49,16.83q-15.3.035-30.606,0a4.172,4.172,0,0,1-4.355-4.33c-.026-1.333,0-2.667,0-4.08-1.05,0-2.152,0-3.253,0-2.045,0-2.359.313-2.359,2.354q0,34.12,0,68.24c0,2.053.316,2.374,2.34,2.374H42.02v-4.9a3.873,3.873,0,0,0-.412-.139c-2.576-.528-3.6-1.856-3.379-4.482a1.128,1.128,0,0,0-1.168-1.35A3.75,3.75,0,0,1,34.955,64c.656-.589.612-1.133-.02-1.711A3.745,3.745,0,0,1,36.966,55.8c1.138-.119,1.321-.511,1.2-1.642a3.56,3.56,0,0,1,1.577-3.523,3.9,3.9,0,0,1,4-.329,1.369,1.369,0,0,0,1.938-.578c1.842-2.69,5-2.7,6.82-.039.434.636.912,1.073,1.674.721a4.6,4.6,0,0,1,4.746.456M16.965,2.808c-3.061,0-6.074,0-9.087,0-3.532,0-5.071,1.525-5.071,5.028q0,37.053,0,74.106c0,3.52,1.534,5.06,5.041,5.06q16.387,0,32.773,0H42V84.2H40.534q-14.984,0-29.968,0c-3.358,0-4.953-1.573-4.953-4.891q0-34.375,0-68.749c0-3.353,1.575-4.935,4.9-4.94,2.071,0,4.142,0,6.248,0,.069-.962.128-1.8.2-2.806m33.6,2.806h6.039c3.608,0,5.123,1.509,5.123,5.105q0,21.813,0,43.625a5.059,5.059,0,0,0,.018,1.017,1.371,1.371,0,0,0,.4.7c.792.7,1.617,1.37,2.391,2.018V57.038q0-24.619,0-49.238c0-.34.012-.682-.014-1.02a4.006,4.006,0,0,0-3.694-3.905c-3.474-.135-6.957-.037-10.44-.037.059.911.114,1.746.181,2.776M33.531,8.421H44.353c3.361,0,3.361,0,3.348-3.4-.007-1.847-.372-2.212-2.241-2.213q-11.4,0-22.79,0c-.424,0-.849-.011-1.273,0-1.271.041-1.722.5-1.753,1.8-.014.594-.007,1.189,0,1.783.015,1.6.434,2.019,2.048,2.022q5.92.01,11.84,0M57.154,54.437c.106-1.635-.311-1.941-1.914-1.4a3.935,3.935,0,0,1-4.981-1.641c-.809-1.166-1.511-1.162-2.328.013a3.933,3.933,0,0,1-4.988,1.622c-.16-.054-.311-.143-.474-.184-1.012-.253-1.555.2-1.476,1.227A3.8,3.8,0,0,1,37.775,58.5c-1.5.375-1.645.872-.6,2.043a3.659,3.659,0,0,1,.034,5.173c-1.1,1.241-.963,1.681.638,2.087a3.815,3.815,0,0,1,3.162,4.369c-.079,1.12.49,1.645,1.537,1.239,2.362-.914,4.2-.451,5.576,1.753.527.842,1.369.785,1.994,0,1.848-2.322,2.725-2.608,5.437-1.776,1.22.374,1.741-.059,1.622-1.35a3.838,3.838,0,0,1,2.813-4.156c.244-.072.5-.091.746-.162,1.073-.316,1.244-.908.531-1.756a6.475,6.475,0,0,1-.911-1.209,3.547,3.547,0,0,1,.778-4.311c.911-1.011.739-1.565-.587-1.917a7.443,7.443,0,0,1-1.2-.387,3.77,3.77,0,0,1-2.19-3.7m-39.9-45.6-.308.205c-.036.905-.1,1.811-.1,2.716-.012,1.932.343,2.273,2.3,2.273q14.012,0,28.023,0c3.35,0,3.358,0,3.329-3.413a14.268,14.268,0,0,0-.186-1.589L50.02,9c-1.111,1.862-2.822,2.26-4.816,2.248q-11.145-.07-22.291,0c-2.234.013-4.376-.014-5.661-2.406M56.166,87c1.285,0,2.429,0,3.573,0,3.167-.01,4.791-1.629,4.8-4.8q.01-6.506,0-13.011V68.152L61.73,70.776c0,2.733.009,5.749,0,8.764-.011,2.934-1.649,4.6-4.552,4.658-.325.007-.65.042-1.009.066Zm-11.2-11.184v9.238c.991-1.034,1.762-1.861,2.558-2.664,1.336-1.349,1.808-1.345,3.144-.018.816.811,1.629,1.626,2.524,2.521V75.883c-3.493,3.631-4.786,3.632-8.227-.064m11.228.729v4.833c.5,0,.918.032,1.333-.007A1.356,1.356,0,0,0,58.9,79.987c.044-1.457.012-2.917.012-4.4l-2.72.961m-7.033,8.263L47.244,86.93H51l-1.842-2.119M64.493,60.76a9.027,9.027,0,0,0-1.621,2.106c-.395,1.066,1.041,1.4,1.291,2.284a4.918,4.918,0,0,0,.33.632Z" transform="translate(0 0)" fill="#68dd84"/>
          <path id="Trazado_879675" data-name="Trazado 879675" d="M61.444,84.914a24.589,24.589,0,0,1,1.337,2.805,11.638,11.638,0,0,1,.777,3.436c.077,5.908.045,11.817.032,17.726a4.2,4.2,0,0,1-4.505,4.567q-5.291.029-10.583,0a4.2,4.2,0,0,1-4.544-4.527c-.016-5.909-.067-11.819.043-17.726a14.669,14.669,0,0,1,1.009-4.02,16.492,16.492,0,0,1,1.086-2.216c-.274-.252-.522-.467-.755-.7a4.034,4.034,0,0,1-1.105-4.539,3.83,3.83,0,0,1,3.655-2.717c3.908-.087,7.82-.081,11.729-.006A3.839,3.839,0,0,1,63.3,79.682a4.03,4.03,0,0,1-1.06,4.551c-.209.208-.448.385-.8.681m-14.63,20.029H60.685V93.875H46.814ZM60.882,90.948a20.646,20.646,0,0,0-.645-2.094c-.365-.856-.886-1.647-1.232-2.509a1.372,1.372,0,0,0-1.531-.976,63.033,63.033,0,0,1-6.367-.02,2.536,2.536,0,0,0-3.027,1.888c-.418,1.218-1.344,2.26-1.279,3.711ZM46.834,107.883c-.192,2.379.148,2.762,2.35,2.763q4.645,0,9.29,0c2.123,0,2.57-.567,2.149-2.762Zm6.934-28.109c-1.695,0-3.389-.008-5.083,0-1.245.008-1.895.485-1.913,1.372s.641,1.424,1.857,1.428q5.147.016,10.294,0c1.21,0,1.875-.541,1.85-1.435s-.675-1.357-1.921-1.365c-1.695-.01-3.389,0-5.084,0" transform="translate(-32.728 -57.321)" fill="#68dd84"/>
          <path id="Trazado_879676" data-name="Trazado 879676" d="M60.575,236.168c-.9,1.786-1.668,3.34-2.462,4.882-.827,1.6-1.923,1.667-2.944.183-.407-.592-.807-1.19-1.34-1.978-.511.751-.944,1.4-1.388,2.039-.706,1.019-1.457,1.263-2.218.729-.707-.5-.769-1.274-.14-2.242.786-1.21,1.574-2.419,2.406-3.6.812-1.152,1.833-1.138,2.676-.006.4.542.79,1.1,1.188,1.644.021.028.078.03.2.075.94-1.872,1.858-3.77,2.852-5.627a2.621,2.621,0,0,1,1.124-1.105c.7-.317,1.388.2,1.743,1.224.692,2,1.378,4.01,1.993,6.037.249.82.616,1.217,1.516,1.092a10.336,10.336,0,0,1,1.782-.01c1.056.038,1.64.528,1.661,1.362.021.882-.588,1.412-1.715,1.434-1.146.023-2.294-.023-3.44.014a1.686,1.686,0,0,1-1.882-1.343c-.225-.772-.5-1.53-.758-2.293s-.517-1.521-.854-2.512" transform="translate(-36.987 -172.144)" fill="#68dd84"/>
          <path id="Trazado_879677" data-name="Trazado 879677" d="M143.307,104.551q4.454,0,8.907,0a9.182,9.182,0,0,1,1.016.03,1.375,1.375,0,0,1,.052,2.735,7.053,7.053,0,0,1-1.015.039q-8.971,0-17.942,0c-1.56,0-2.258-.459-2.23-1.439.026-.932.7-1.361,2.177-1.364q4.517-.007,9.035,0" transform="translate(-98.408 -77.888)" fill="#68dd84"/>
          <path id="Trazado_879678" data-name="Trazado 879678" d="M143.275,151.379q-4.39,0-8.78,0a7.819,7.819,0,0,1-1.142-.042,1.372,1.372,0,0,1-.044-2.714,6.2,6.2,0,0,1,1.015-.046q9.035,0,18.069,0c.17,0,.34,0,.509,0,1.035.056,1.64.56,1.655,1.375s-.594,1.377-1.61,1.414c-.932.034-1.866.012-2.8.012h-6.871" transform="translate(-98.454 -110.684)" fill="#68dd84"/>
          <path id="Trazado_879679" data-name="Trazado 879679" d="M55.423,286.117q4.39,0,8.78,0a6.785,6.785,0,0,1,1.017.022,1.383,1.383,0,0,1,.049,2.751,5.726,5.726,0,0,1-1.015.031q-8.971,0-17.941,0c-.255,0-.511.016-.763-.008-.92-.084-1.521-.652-1.459-1.434a1.374,1.374,0,0,1,1.41-1.354c.3-.024.593-.01.89-.01h9.034" transform="translate(-32.842 -213.147)" fill="#68dd84"/>
          <path id="Trazado_879680" data-name="Trazado 879680" d="M152.947,82.542h7.378c.339,0,.679-.006,1.017.015a1.355,1.355,0,0,1,1.4,1.352c.064.773-.545,1.343-1.46,1.425-.295.027-.593.013-.89.014q-7.442,0-14.884,0a8.153,8.153,0,0,1-1.142-.04,1.374,1.374,0,0,1,.054-2.733,9.116,9.116,0,0,1,1.016-.03q3.753,0,7.505,0" transform="translate(-106.654 -61.492)" fill="#68dd84"/>
          <path id="Trazado_879681" data-name="Trazado 879681" d="M142.035,170.567q3.689,0,7.378,0a6.8,6.8,0,0,1,1.141.05,1.368,1.368,0,0,1,.043,2.688,5.906,5.906,0,0,1-1.139.063q-7.569.005-15.138,0c-.212,0-.425.007-.636-.007-1.01-.067-1.615-.618-1.589-1.438.024-.777.6-1.294,1.545-1.349.55-.032,1.1-.012,1.654-.012h6.742" transform="translate(-98.408 -127.065)" fill="#68dd84"/>
          <path id="Trazado_879682" data-name="Trazado 879682" d="M181.71,129.349c-1.312,0-2.625.021-3.937-.008-1.043-.022-1.642-.538-1.668-1.351-.028-.857.605-1.425,1.712-1.434q3.873-.033,7.747,0c1.113.009,1.747.562,1.733,1.415s-.645,1.355-1.776,1.374c-1.27.021-2.54,0-3.81,0" transform="translate(-131.195 -94.27)" fill="#68dd84"/>
          <path id="Trazado_879683" data-name="Trazado 879683" d="M136.187,129.332c-.888,0-1.776.023-2.663-.007a1.383,1.383,0,1,1,.034-2.764q2.726-.065,5.454,0a1.386,1.386,0,0,1,1.481,1.4,1.409,1.409,0,0,1-1.515,1.369c-.929.041-1.86.009-2.79.009v0" transform="translate(-98.42 -94.262)" fill="#68dd84"/>
          <path id="Trazado_879684" data-name="Trazado 879684" d="M173.683,218.915a9.818,9.818,0,1,1-9.942-9.795,9.831,9.831,0,0,1,9.942,9.795m-9.826-6.991a7.014,7.014,0,1,0,7.02,6.939,7.027,7.027,0,0,0-7.02-6.939" transform="translate(-114.763 -155.791)" fill="#68dd84"/>
          <path id="Trazado_879685" data-name="Trazado 879685" d="M68.9,151.507c.253-1.057-.281-2.713,1.553-2.66,1.7.049,1.226,1.607,1.406,2.652,1.094.206,2.536-.249,2.716,1.451.1.967-.546,1.316-2.671,1.528-.3,1.012.288,2.763-1.631,2.645-1.617-.1-1.158-1.58-1.35-2.626-1.044-.27-2.708.253-2.678-1.54.029-1.705,1.586-1.253,2.656-1.449" transform="translate(-49.348 -110.887)" fill="#68dd84"/>
          <path id="Trazado_879686" data-name="Trazado 879686" d="M179.443,233.464l1.941-5.8c.108-.322.191-.654.328-.962a1.395,1.395,0,1,1,2.612.956c-.871,2.7-1.753,5.4-2.687,8.082a1.414,1.414,0,0,1-2.217.9c-.846-.39-1.683-.809-2.494-1.267a1.39,1.39,0,1,1,1.254-2.475c.376.18.76.343,1.262.568" transform="translate(-131.15 -168.128)" fill="#68dd84"/>
        </g>
      </g>
    </g>
  </g>
</svg>
