<svg xmlns="http://www.w3.org/2000/svg" xmlns:xlink="http://www.w3.org/1999/xlink" width="107" height="107" viewBox="0 0 107 107">
  <defs>
    <clipPath id="clip-path">
      <rect id="Rectángulo_404292" data-name="Rectángulo 404292" width="67.677" height="67.695" fill="#fff"/>
    </clipPath>
  </defs>
  <g id="Grupo_1103356" data-name="Grupo 1103356" transform="translate(-227.711 -3383)">
    <g id="Grupo_1103239" data-name="Grupo 1103239">
      <g id="Grupo_1102989" data-name="Grupo 1102989" transform="translate(227.711 2879.595)">
        <g id="Grupo_1102988" data-name="Grupo 1102988">
          <g id="Grupo_156312" data-name="Grupo 156312" transform="translate(0 503.405)">
            <path id="Elipse_5845" data-name="Elipse 5845" d="M53.5,0A53.5,53.5,0,1,1,0,53.5,53.5,53.5,0,0,1,53.5,0Z" fill="#68dd84"/>
          </g>
        </g>
      </g>
      <g id="Grupo_1103234" data-name="Grupo 1103234" transform="translate(250.711 3402)">
        <g id="Grupo_1103233" data-name="Grupo 1103233" clip-path="url(#clip-path)">
          <path id="Trazado_879687" data-name="Trazado 879687" d="M48.03,15.692c1.61-.8,3.066-1.487,4.485-2.243a1.919,1.919,0,0,1,1.957,0q6.094,3.094,12.223,6.119a1.552,1.552,0,0,1,.98,1.636,29.425,29.425,0,0,1-13.24,24.254,1.419,1.419,0,0,1-1.892-.007C51.1,44.318,49.635,43.2,48.03,41.965v1.214q0,11.314,0,22.627c0,1.7-.187,1.888-1.876,1.888H1.9c-1.714,0-1.9-.182-1.9-1.862Q0,37.1,0,8.371C0,6.75.2,6.555,1.845,6.553c2.243,0,4.485,0,6.655,0,.108-.15.172-.2.179-.252.218-1.925.224-1.93,2.178-1.931H13.1c0-.955,0-1.832,0-2.709C13.11.274,13.361,0,14.708,0Q24.034,0,33.361,0c1.29,0,1.555.284,1.568,1.6.009.882,0,1.765,0,2.768.979,0,1.83,0,2.68,0,1.4.009,1.594.193,1.692,1.58.011.16.048.317.092.6H40.67q2.778,0,5.556,0c1.579,0,1.8.217,1.8,1.761,0,2.051,0,4.1,0,6.153v1.225m-6.614,45.4c.025-.375.062-.664.062-.953q0-13.789-.009-27.579a4.086,4.086,0,0,0-.27-1.339,31.6,31.6,0,0,1-1.9-9.778c-.03-1,.227-1.676,1.215-1.972a1.312,1.312,0,0,0,.984-1.56c-.069-1.286-.014-2.578-.022-3.868,0-.285-.047-.569-.073-.871h-2c-.341,2.111-.341,2.111-2.511,2.111H11.208c-2.193,0-2.193,0-2.6-2.091H6.63v47.9ZM65.448,22.672c-.026-.605.21-1.2-.6-1.6-3.622-1.759-7.208-3.594-10.824-5.366a1.378,1.378,0,0,0-1.066,0c-3.616,1.773-7.208,3.593-10.819,5.375a.915.915,0,0,0-.611,1.08c.268,1.726.394,3.485.8,5.176a26.959,26.959,0,0,0,10.552,15.7.865.865,0,0,0,1.216,0A27.515,27.515,0,0,0,65.448,22.672M2.25,65.449h43.6V64.132c0-7.676-.083-15.352.057-23.026.036-1.99-1.174-3.046-2-4.439l-.237.061v1.161q0,11.91,0,23.821c0,1.321-.277,1.614-1.549,1.614q-18.11.008-36.219,0c-1.229,0-1.522-.3-1.522-1.54q-.007-24.664,0-49.328c0-1.237.294-1.517,1.53-1.533.912-.012,1.824,0,2.758,0V8.736H2.25Zm34.8-52.412V6.551c-.94,0-1.822.007-2.7,0-1.312-.012-1.584-.278-1.6-1.566-.01-.91,0-1.82,0-2.715H15.4a1.252,1.252,0,0,0-.088.266c-.012.826-.015,1.653-.029,2.479-.021,1.235-.3,1.519-1.531,1.534-.911.012-1.823,0-2.76,0v6.485Zm6.612,4.83a11.225,11.225,0,0,0,1.592-.8,1.358,1.358,0,0,0,.565-.88c.044-2.312.023-4.625.012-6.938a1.616,1.616,0,0,0-.116-.426H39.379v2.1c.9,0,1.718,0,2.538,0,1.505.007,1.741.235,1.746,1.715.006,1.68,0,3.36,0,5.232" transform="translate(0 0)" fill="#fff"/>
          <path id="Trazado_879688" data-name="Trazado 879688" d="M59.266,171.589q-6.791,0-13.581,0c-1.443,0-1.694-.25-1.7-1.659-.007-1.124-.011-2.248,0-3.371.014-1.225.3-1.513,1.544-1.515q7.534-.011,15.069,0,6.1,0,12.194,0c1.513,0,1.747.232,1.754,1.708.006,1.124.013,2.248,0,3.371-.017,1.162-.314,1.463-1.495,1.466q-6.89.014-13.78,0m-13.048-2.276H72.274V167.3H46.218Z" transform="translate(-35.248 -132.282)" fill="#fff"/>
          <path id="Trazado_879689" data-name="Trazado 879689" d="M55.038,209.051H69.311c.3,0,.6-.006.892.012a1.077,1.077,0,0,1,.043,2.154c-.3.027-.594.017-.891.017H40.513c-.231,0-.463.008-.694-.006-.788-.049-1.289-.479-1.236-1.113a1.074,1.074,0,0,1,1.192-1.058c.3,0,.595-.006.892-.006H55.038" transform="translate(-30.922 -167.56)" fill="#fff"/>
          <path id="Trazado_879690" data-name="Trazado 879690" d="M55.025,231.057H69.4a8.278,8.278,0,0,1,.891.024,1.069,1.069,0,0,1,.036,2.128,6.52,6.52,0,0,1-.89.03q-14.52,0-29.04,0c-1.312,0-1.859-.339-1.835-1.123.023-.743.552-1.058,1.8-1.059q7.334,0,14.669,0" transform="translate(-30.905 -185.198)" fill="#fff"/>
          <path id="Trazado_879691" data-name="Trazado 879691" d="M54.808,255.24q-7.235,0-14.47,0c-1.234,0-1.769-.331-1.778-1.08s.529-1.1,1.755-1.1q14.619,0,29.238,0c.165,0,.331-.006.5,0,.782.052,1.286.49,1.227,1.124a1.078,1.078,0,0,1-1.2,1.048c-.991.007-1.982.006-2.973.007H54.808" transform="translate(-30.906 -202.831)" fill="#fff"/>
          <path id="Trazado_879692" data-name="Trazado 879692" d="M54.988,277.248H40.617c-.33,0-.662.009-.99-.023a1,1,0,0,1-1-1.034,1.017,1.017,0,0,1,1.024-1.108c.262-.026.528-.017.792-.017q14.52,0,29.04,0a6.788,6.788,0,0,1,.89.028,1.069,1.069,0,0,1-.027,2.127,9.083,9.083,0,0,1-.99.026q-7.186,0-14.371,0" transform="translate(-30.963 -220.472)" fill="#fff"/>
          <path id="Trazado_879693" data-name="Trazado 879693" d="M106.072,93.312a4.928,4.928,0,0,1,1.687,4.5c-.037.693,0,1.389-.014,2.083a1.075,1.075,0,0,1-1.155,1.2q-3.224.024-6.448,0a1.033,1.033,0,0,1-1.107-1.137c-.01-1.256-.028-2.515.047-3.768a4.288,4.288,0,0,1,1.63-2.913,3.348,3.348,0,0,1-.4-3,4.762,4.762,0,0,1,1.2-1.636,3.157,3.157,0,0,1,3.941.121c1.273,1.044,1.485,2.525.612,4.558m-.552,5.566a24.637,24.637,0,0,0-.017-2.534,2.148,2.148,0,0,0-4.182-.214,18.673,18.673,0,0,0-.028,2.748Zm-2.14-6.524a1.016,1.016,0,0,0,1.072-1.044.994.994,0,0,0-1.01-1.095,1.07,1.07,0,1,0-.062,2.139" transform="translate(-79.372 -70.534)" fill="#fff"/>
          <path id="Trazado_879694" data-name="Trazado 879694" d="M241.89,115.414c0,1.112.018,2.069,0,3.026s-.379,1.319-1.328,1.335q-1.934.032-3.869,0c-.958-.015-1.312-.37-1.336-1.327s-.005-1.915-.005-3.035c-.965,0-1.873,0-2.782,0-1.271-.009-1.574-.309-1.584-1.584-.009-1.191-.016-2.382,0-3.572.017-1.028.359-1.37,1.374-1.389.952-.018,1.905,0,2.988,0,0-1.034-.013-1.981,0-2.928.018-1.086.353-1.424,1.428-1.436,1.257-.014,2.513-.018,3.77,0,.963.016,1.314.364,1.338,1.324s.005,1.915.005,3.037c.963,0,1.872,0,2.78,0,1.27.008,1.576.31,1.587,1.581.01,1.158.012,2.315,0,3.473s-.34,1.479-1.475,1.493c-.92.012-1.839,0-2.89,0m2.154-4.247a1.316,1.316,0,0,0-.286-.1c-.825-.009-1.651-.01-2.476-.018-1.263-.013-1.558-.309-1.57-1.6-.008-.885,0-1.77,0-2.7h-2.187c0,1.019.016,1.974,0,2.928-.022,1.005-.379,1.352-1.393,1.37-.95.016-1.9,0-2.9,0v2.184c.954,0,1.84-.006,2.726,0,1.261.01,1.556.309,1.568,1.6.008.885,0,1.77,0,2.7h2.1a1.325,1.325,0,0,0,.069-.254c.01-.826.012-1.651.022-2.477.017-1.263.32-1.562,1.595-1.57.906-.006,1.812,0,2.737,0Z" transform="translate(-185.13 -83.749)" fill="#fff"/>
        </g>
      </g>
    </g>
  </g>
</svg>
