<svg xmlns="http://www.w3.org/2000/svg" xmlns:xlink="http://www.w3.org/1999/xlink" width="107" height="107" viewBox="0 0 107 107">
  <defs>
    <clipPath id="clip-path">
      <rect id="Rectángulo_404304" data-name="Rectángulo 404304" width="72.94" height="77.246" fill="#fff"/>
    </clipPath>
  </defs>
  <g id="Grupo_1103357" data-name="Grupo 1103357" transform="translate(-227 -2341.41)">
    <g id="Grupo_1103356" data-name="Grupo 1103356">
      <g id="Grupo_156312" data-name="Grupo 156312" transform="translate(227 2341.41)">
        <path id="Elipse_5845" data-name="Elipse 5845" d="M53.5,0A53.5,53.5,0,1,1,0,53.5,53.5,53.5,0,0,1,53.5,0Z" fill="#3b57de"/>
      </g>
    </g>
    <g id="Grupo_1103253" data-name="Grupo 1103253" transform="translate(241.878 2355.518)">
      <g id="Grupo_1103252" data-name="Grupo 1103252" clip-path="url(#clip-path)">
        <path id="Trazado_879713" data-name="Trazado 879713" d="M28.749,8.594c0-.576-.012-1,0-1.422A2.391,2.391,0,0,1,31.075,4.6c.767-.1,1.548-.083,2.359-.121A5.625,5.625,0,0,1,39.248,0c2.628-.011,4.364,1.42,5.575,4.53.6,0,1.25-.015,1.9,0a3.169,3.169,0,0,1,2.083.633,2.18,2.18,0,0,1,.849,1.722c0,.5,0,1.005,0,1.636.5.026.913.065,1.325.066q5.032.007,10.064,0c.351,0,.7-.009,1.053.007a2.715,2.715,0,0,1,2.866,2.88c.039,1.911,0,3.823-.012,5.734-.014,2.574,0,5.15-.067,7.723a1.531,1.531,0,0,0,.905,1.558,13.782,13.782,0,0,1,6.95,10.041,14.224,14.224,0,0,1-6.907,14.74c-.3.18-.607.346-.991.564,0,.408,0,.831,0,1.253q-.011,9.128-.029,18.256a6.157,6.157,0,0,1-.156,1.5,2.443,2.443,0,0,1-2.137,1.893,9.683,9.683,0,0,1-1.517.064q-19.251,0-38.5-.011a4.37,4.37,0,0,0-2.538.68c-.812.535-1.69.97-2.519,1.48a1.531,1.531,0,0,1-1.741.033Q8.281,72.67.825,68.4a1.712,1.712,0,0,1-.809-1.778q.006-7.548,0-15.1c0-.507.036-1.017-.007-1.521a1.715,1.715,0,0,1,1.047-1.768c3.625-2.061,7.2-4.21,10.858-6.209a2.8,2.8,0,0,0,1.71-2.873c-.084-8.894-.042-17.788-.041-26.682,0-.351-.014-.7.007-1.053A2.752,2.752,0,0,1,16.524,8.6c3.589-.02,7.178-.007,10.766-.007h1.459m31.1,44.687c-9.754.292-15.34-6.985-15.584-13.757a13.938,13.938,0,0,1,2.832-9.2,14.435,14.435,0,0,1,12.7-5.807V22.512c-.478,0-.864,0-1.25,0-2.107-.012-4.213-.019-6.32-.041-1.377-.015-1.614-.259-1.622-1.665-.011-1.834,0-3.667-.009-5.5,0-.377-.043-.755-.066-1.128a2.285,2.285,0,0,0-1.946.32,3.417,3.417,0,0,1-1.76.484q-7.607.054-15.214,0a7.387,7.387,0,0,1-1.878-.512,5.183,5.183,0,0,0-1.285-.375c-2.925-.033-5.851-.02-8.777-.013-.3,0-.594.056-.918.089-.019.343-.046.611-.046.88,0,8.192.007,16.385-.018,24.577a1.456,1.456,0,0,0,.874,1.449c4.133,2.349,8.234,4.754,12.366,7.105a1.936,1.936,0,0,1,1.153,1.942c-.067,2.3-.022,4.6-.021,6.9,0,3.277-.014,6.554.012,9.831a1.526,1.526,0,0,1-.907,1.6,12.42,12.42,0,0,0-1.243.777H59.845Zm-1.217-1.947a12.464,12.464,0,1,0-.053-24.928,12.464,12.464,0,1,0,.053,24.928M17.548,74.643a3.853,3.853,0,0,0,.457-.171c4.186-2.411,8.362-4.839,12.563-7.224.61-.347.623-.812.622-1.368q-.006-6.9-.007-13.806a8.447,8.447,0,0,0-.114-.946c-.386.2-.665.33-.93.484-3.915,2.257-7.817,4.537-11.752,6.76a1.533,1.533,0,0,0-.906,1.556c.035,4.6.017,9.2.019,13.806,0,.27.027.54.047.91m-1.935.148V65.225c0-1.832.013-3.665-.013-5.5,0-.319-.073-.794-.283-.927-1.3-.827-2.651-1.577-4.159-2.454-.049,1.211-.086,2.216-.132,3.219-.049,1.075-.559,1.4-1.5.916-.692-.355-1.34-.8-2.029-1.158a1.384,1.384,0,0,1-.779-1.43c.034-1.091-.029-2.185.023-3.274a1.219,1.219,0,0,0-.764-1.278c-1.1-.583-2.16-1.242-3.244-1.858a8.886,8.886,0,0,0-.823-.363V66.877l13.7,7.914M39.2,13.117c2.5,0,4.993.009,7.489,0,1.018-.005,1.154-.139,1.167-1.145.019-1.521.023-3.043-.006-4.564-.015-.8-.19-.956-.979-.988s-1.56-.006-2.34-.011c-1.421-.009-1.462-.1-1.7-1.479a3.868,3.868,0,0,0-.762-1.776,3.748,3.748,0,0,0-4.153-1.131,3.311,3.311,0,0,0-2.6,3.215C35.273,6.15,35,6.371,34.069,6.4c-.74.022-1.482,0-2.223.009-1.142.02-1.209.082-1.217,1.189q-.016,2.165,0,4.33c.008,1.132.054,1.182,1.2,1.187,2.457.011,4.915,0,7.373,0M61.777,52.935c0,.558,0,.985,0,1.412q0,7.082,0,14.163a6.86,6.86,0,0,1-.033,1.051,1.812,1.812,0,0,1-1.814,1.657c-.349.027-.7.009-1.053.009-10.145,0-20.289.021-30.433-.022-1.544-.007-2.5.957-3.66,1.631a.857.857,0,0,0,.487.135q18.084,0,36.169,0c1.344,0,1.5-.185,1.508-1.592q.019-8.72.028-17.441c0-.312-.007-.624-.035-.934-.009-.1-.1-.188-.17-.323l-.991.255m1.312-27.779c0-1.334,0-2.5,0-3.663.006-3.2.018-6.4.018-9.594,0-1.205-.207-1.406-1.422-1.471-.117-.006-.234,0-.351,0-2.847,0-5.694-.008-8.541,0-1,0-2,.062-3.045.1v1.639c.467,0,.854.029,1.236-.007a1.945,1.945,0,0,1,1.571.614Q56.8,16.7,61.079,20.61a1.964,1.964,0,0,1,.7,1.643c-.033.85-.008,1.7-.008,2.6l1.314.3M2.806,49.386l4.753,2.743L21.3,44.2l-4.754-2.741L2.806,49.386m13.746,7.94,13.733-7.941L25.793,46.8,12.071,54.732l4.482,2.594M28.68,10.544c-.4-.028-.742-.072-1.084-.073q-5.263-.008-10.526,0c-1.46,0-1.6.148-1.6,1.615q0,13.392,0,26.784c0,.291.03.582.05.947l1.281-.488V37.993q0-11.579,0-23.158c0-2.112.569-2.67,2.714-2.672q4.035,0,8.07,0h1.1ZM58.3,20.565l-5.8-5.3v5.3ZM23.8,45.81c-.409-.628-.812-.466-1.3-.182-2.615,1.531-5.245,3.037-7.87,4.552L9.6,53.086c.339.632.723.524,1.174.26,1.88-1.095,3.772-2.169,5.656-3.259,2.449-1.417,4.894-2.841,7.369-4.278M8.742,55.133c.018.989-.676,2.094.441,2.871-.049-.981.5-2.048-.441-2.871" transform="translate(0 -0.001)" fill="#fff"/>
        <path id="Trazado_879714" data-name="Trazado 879714" d="M90.611,85.748c-.068-3.75-.043-3.74,2.424-4.278a18.476,18.476,0,0,0,7.279-3.313c.187-.141.366-.291.555-.429a2.012,2.012,0,0,1,2.859.02,17.765,17.765,0,0,0,5.057,2.871,29.713,29.713,0,0,0,3.249.92c1.7.375,2.072.719,2,2.422-.313,7.7-3.877,13.385-10.618,17.1a1.947,1.947,0,0,1-2.067.106c-6.666-3.566-10.214-9.126-10.74-15.417m21.556-2.254a21.567,21.567,0,0,1-9.889-4.536,21.8,21.8,0,0,1-9.963,4.582c.078.812.125,1.507.215,2.2a17.385,17.385,0,0,0,9.021,13.438,1.319,1.319,0,0,0,1.491-.012,17.367,17.367,0,0,0,7.705-8.5,16.54,16.54,0,0,0,1.42-7.169" transform="translate(-69.382 -59.079)" fill="#fff"/>
        <path id="Trazado_879715" data-name="Trazado 879715" d="M161.919,252.034q-4.1,0-8.192,0c-1.03,0-1.478-.28-1.5-.9-.026-.657.474-.991,1.553-.992q8.191-.008,16.383,0a1.739,1.739,0,0,1,.907.119,1.451,1.451,0,0,1,.637.866.826.826,0,0,1-.777.873,6.524,6.524,0,0,1-.934.03q-4.037,0-8.074,0" transform="translate(-116.582 -191.57)" fill="#fff"/>
        <path id="Trazado_879716" data-name="Trazado 879716" d="M162.192,270.157q-3.975,0-7.95,0a5.22,5.22,0,0,1-.933-.035.848.848,0,0,1-.752-.9.781.781,0,0,1,.669-.833,4.947,4.947,0,0,1,1.041-.1q8.008-.008,16.016,0a2.188,2.188,0,0,1,1.026.122,1.351,1.351,0,0,1,.654.838.806.806,0,0,1-.771.869,7.475,7.475,0,0,1-.933.032q-4.033,0-8.067,0" transform="translate(-116.837 -205.471)" fill="#fff"/>
        <path id="Trazado_879717" data-name="Trazado 879717" d="M160.229,233.965c-2.067,0-4.134.005-6.2,0-1.031,0-1.469-.291-1.468-.925s.459-.958,1.452-.96q6.2-.011,12.4,0a3.661,3.661,0,0,1,.468.011c.631.081,1,.428,1.008.934a.93.93,0,0,1-.992.93c-.66.043-1.325.015-1.988.015h-4.68" transform="translate(-116.839 -177.734)" fill="#fff"/>
        <path id="Trazado_879718" data-name="Trazado 879718" d="M226.161,150c-.818,0-1.637.023-2.455-.007-.749-.028-1.108-.345-1.13-.91-.023-.616.356-.969,1.166-.986,1.246-.026,2.5-.064,3.74.01a2.7,2.7,0,0,0,2.258-.919c.949-.976,1.987-1.867,2.994-2.787.228-.208.466-.5.732-.546a1.382,1.382,0,0,1,1.029.223,1.126,1.126,0,0,1,.1.946,1.877,1.877,0,0,1-.588.7c-1.282,1.2-2.59,2.364-3.854,3.577a2.313,2.313,0,0,1-1.887.711c-.7-.052-1.4-.011-2.1-.011Z" transform="translate(-170.461 -110.157)" fill="#fff"/>
        <path id="Trazado_879719" data-name="Trazado 879719" d="M204.106,163.863a4.308,4.308,0,0,1-.907-.2.888.888,0,0,1-.341-1.358,1.956,1.956,0,0,1,2.42-.025.871.871,0,0,1-.3,1.363,4.072,4.072,0,0,1-.873.219" transform="translate(-155.217 -123.972)" fill="#fff"/>
        <path id="Trazado_879720" data-name="Trazado 879720" d="M217.882,132.826a.827.827,0,0,1-.755.781c-.709.128-1.929-1.2-1.657-1.86a1.271,1.271,0,0,1,.82-.656c.565-.1,1.6,1.029,1.592,1.734" transform="translate(-164.989 -100.392)" fill="#fff"/>
        <path id="Trazado_879721" data-name="Trazado 879721" d="M287.641,161.922a2.715,2.715,0,0,1,.682.115.872.872,0,0,1,.579,1.109c-.132.51-.7.756-1.541.7-.707-.045-1.144-.354-1.169-.872a.917.917,0,0,1,.768-1,4.492,4.492,0,0,1,.681-.055" transform="translate(-219.18 -124.009)" fill="#fff"/>
        <path id="Trazado_879722" data-name="Trazado 879722" d="M218,191.167a2.331,2.331,0,0,1-1.518,1.586.919.919,0,0,1-.79-1.337,3.243,3.243,0,0,1,1.042-1.056.839.839,0,0,1,1.266.807" transform="translate(-165.102 -145.688)" fill="#fff"/>
        <path id="Trazado_879723" data-name="Trazado 879723" d="M246.448,119.725c.029-.237-.019-.528.1-.683.2-.25.507-.561.775-.568a.983.983,0,0,1,.788.519,3.922,3.922,0,0,1,.017,1.709c-.058.246-.565.52-.877.53-.24.008-.575-.334-.717-.6a2.415,2.415,0,0,1-.09-.908" transform="translate(-188.743 -90.734)" fill="#fff"/>
        <path id="Trazado_879724" data-name="Trazado 879724" d="M275.488,190.225a2.28,2.28,0,0,1,1.571,1.528.936.936,0,0,1-.9,1,2.293,2.293,0,0,1-1.513-1.592.91.91,0,0,1,.847-.933" transform="translate(-210.336 -145.685)" fill="#fff"/>
        <path id="Trazado_879725" data-name="Trazado 879725" d="M277.011,132.1a2.3,2.3,0,0,1-1.524,1.578.907.907,0,0,1-.791-1.332,3.443,3.443,0,0,1,1.051-1.057.843.843,0,0,1,1.265.811" transform="translate(-210.288 -100.452)" fill="#fff"/>
        <path id="Trazado_879726" data-name="Trazado 879726" d="M248.265,203.339c-.017.231.05.526-.068.678-.217.28-.539.653-.823.657a1.132,1.132,0,0,1-.814-.639,3.133,3.133,0,0,1-.054-1.258.792.792,0,0,1,.792-.833.834.834,0,0,1,.935.816,4.405,4.405,0,0,1,0,.578h.027" transform="translate(-188.761 -154.658)" fill="#fff"/>
        <path id="Trazado_879727" data-name="Trazado 879727" d="M110.562,281.424c-.183-.155-.575-.327-.64-.583-.08-.315-.007-.883.207-1.022,1.163-.755,2.373-1.443,3.6-2.083a.765.765,0,0,1,1.081.391.836.836,0,0,1-.258,1.14c-1.15.71-2.335,1.362-3.51,2.031a2.509,2.509,0,0,1-.484.126" transform="translate(-84.16 -212.634)" fill="#fff"/>
        <path id="Trazado_879728" data-name="Trazado 879728" d="M113.229,271.21c-.346-.3-.705-.475-.8-.741s-.048-.8.137-.93a18.572,18.572,0,0,1,2.6-1.5c.2-.095.706.138.864.364s.193.818.043.93c-.884.663-1.839,1.233-2.838,1.879" transform="translate(-86.066 -205.26)" fill="#fff"/>
        <path id="Trazado_879729" data-name="Trazado 879729" d="M137.623,107.5c0,.975.007,1.949,0,2.924,0,.269.032.616-.115.788a1.493,1.493,0,0,1-.9.556c-.253.013-.608-.306-.764-.569a1.917,1.917,0,0,1-.1-.911c-.007-1.871,0-3.742,0-5.613,0-.2-.006-.391.013-.584a.927.927,0,1,1,1.854.019c.05.62.02,1.246.023,1.87,0,.507,0,1.014,0,1.52" transform="translate(-103.951 -78.992)" fill="#fff"/>
        <path id="Trazado_879730" data-name="Trazado 879730" d="M135.748,149.958c-.013-.753.345-1.222.931-1.218.554,0,.918.423.951,1.1a1.133,1.133,0,0,1-.886,1.3c-.543.049-.983-.472-1-1.18" transform="translate(-103.963 -113.913)" fill="#fff"/>
      </g>
    </g>
  </g>
</svg>
