<svg xmlns="http://www.w3.org/2000/svg" xmlns:xlink="http://www.w3.org/1999/xlink" width="107" height="107" viewBox="0 0 107 107">
  <defs>
    <clipPath id="clip-path">
      <rect id="Rectángulo_404303" data-name="Rectángulo 404303" width="71.709" height="71.21" fill="#fff"/>
    </clipPath>
  </defs>
  <g id="Grupo_1103357" data-name="Grupo 1103357" transform="translate(-227.711 -2945.5)">
    <g id="Grupo_1102989" data-name="Grupo 1102989">
      <g id="Grupo_1102988" data-name="Grupo 1102988" transform="translate(-25)">
        <g id="Grupo_1103356" data-name="Grupo 1103356">
          <g id="Grupo_156312" data-name="Grupo 156312" transform="translate(-35.957 -1502.937)">
            <path id="Elipse_5845" data-name="Elipse 5845" d="M53.5,0A53.5,53.5,0,1,1,0,53.5,53.5,53.5,0,0,1,53.5,0Z" transform="translate(288.668 4448.437)" fill="#68dd84"/>
          </g>
        </g>
      </g>
    </g>
    <g id="Grupo_1103238" data-name="Grupo 1103238" transform="translate(243.711 2963)">
      <g id="Grupo_1103237" data-name="Grupo 1103237" clip-path="url(#clip-path)">
        <path id="Trazado_879704" data-name="Trazado 879704" d="M33.613,46.407c-6.492-2.822-8.881-8.476-8.028-13.957A12.535,12.535,0,0,1,36.09,22.12c4.942-.743,11.442,1.51,14.056,8.932H51.41c8.03,0,16.06.02,24.09-.022a2.242,2.242,0,0,1,2.359,1.4c1.925,3.894,3.957,7.736,5.959,11.592a4.219,4.219,0,0,1,.5,2.035c-.027,3.939.018,7.878-.038,11.816a1.321,1.321,0,0,0,1,1.491c1.6.515,3.195,1.05,4.812,1.5.981.274,1.3.457,1.3,1.391,0,4.386.057,8.776-.1,13.158A9.921,9.921,0,0,1,86.961,83.2a65.287,65.287,0,0,1-8.1,4.841,1.339,1.339,0,0,1-1.4.012c-2.641-1.565-5.3-3.1-7.9-4.73a9.142,9.142,0,0,1-2.15-1.961,1.952,1.952,0,0,0-1.737-.737c-3.527.022-7.055.01-10.582.01H35.624a7.485,7.485,0,0,1-.9-.014,1.155,1.155,0,0,1-1.095-1.089,8.369,8.369,0,0,1-.016-1.012q0-15.418,0-30.835V46.407m33.98-.023v1.343c0,2.514.005,5.028,0,7.542,0,1.334-.333,1.672-1.658,1.674q-6.024.012-12.048,0c-1.365,0-1.65-.289-1.655-1.653-.009-2.551,0-5.1,0-7.655V46.342H50.955c-2.4,0-4.805-.026-7.206.014a21.668,21.668,0,0,0-2.439.3c-1.11.146-2.217.326-3.331.432-.662.063-1.336.011-2.075.011V78.33H65.562a26.887,26.887,0,0,1-.824-7.543c.024-2.739.115-5.477.176-8.215.029-1.295.185-1.466,1.439-1.712a19.374,19.374,0,0,0,10.508-5.684c1.143-1.191,1.42-1.173,2.625.03.757.756,1.576,1.45,2.517,2.309V46.384ZM36.926,24.363c-5.193.06-9.329,5.387-9.124,9.045.171.027.351.067.532.08.224.017.451,0,.674.018.752.075,1.2.5,1.158,1.1a1.117,1.117,0,0,1-1.147,1.013c-.4.029-.807.005-1.2.005-.2,4.09,4.437,9.282,9.107,9.066,0-.4-.026-.812.006-1.217a1.078,1.078,0,0,1,1.037-1.1,1.054,1.054,0,0,1,1.06,1.073c.036.438.007.881.007,1.32,4.562.025,9.341-4.844,9.1-9.14-.4,0-.806.026-1.209-.006a1.1,1.1,0,0,1-1.113-1.036c-.018-.584.364-.984,1.066-1.067.437-.052.881-.056,1.311-.082.276-4.208-5.157-9.579-9.15-9.009,0,.39.026.8-.006,1.2-.054.7-.449,1.108-1.026,1.114a1.08,1.08,0,0,1-1.069-1.08c-.037-.4-.007-.813-.007-1.3M81.383,44.106c-.194-.4-.314-.673-.449-.934-1.581-3.061-3.188-6.108-4.729-9.189a1.3,1.3,0,0,0-1.379-.833c-3.151.032-6.3.012-9.453.017-.292,0-.583.041-1.039.075l2.971,10.865ZM67.044,62.953c-.007,4-.278,7.89.089,11.784a9.259,9.259,0,0,0,3.448,6.579,41.8,41.8,0,0,0,7.069,4.36,1.235,1.235,0,0,0,1.026-.011c2.256-1.33,4.536-2.633,6.7-4.1a7.879,7.879,0,0,0,3.276-4.443,13.684,13.684,0,0,0,.59-3.3c.07-3.486.019-6.974.008-10.462a1.854,1.854,0,0,0-.111-.434,22.145,22.145,0,0,1-10.989-5.945,22.424,22.424,0,0,1-11.108,5.978M65.358,46.427H54.406v8.25H65.358ZM54.728,44.077H65.051L62.08,33.241H57.7L54.728,44.077m-2.241.023L55.45,33.237H50.506A12.879,12.879,0,0,1,46.229,44.1Z" transform="translate(-19.695 -17.035)" fill="#fff"/>
        <path id="Trazado_879705" data-name="Trazado 879705" d="M31.124,5.281c.655-1,1.086-1.232,1.695-.944s.723.8.443,1.858c-.057.217-.129.431-.18.65-.429,1.862-.428,1.864-2.37,1.985-.487.03-.974.044-1.462.058-.589.016-1.045-.189-1.155-.822a1.024,1.024,0,0,1,.715-1.238c.129-.049.255-.108.517-.22a15.242,15.242,0,0,0-5.24-3.337A16.072,16.072,0,0,0,7.758,30.418c.4.341.839.637,1.216,1a1.048,1.048,0,0,1,.169,1.427,1.122,1.122,0,0,1-1.426.253,4.213,4.213,0,0,1-.638-.458A18.042,18.042,0,0,1,.146,20.356,18.218,18.218,0,0,1,30.111,4.393c.313.267.619.542,1.013.888" transform="translate(0 0.001)" fill="#fff"/>
        <path id="Trazado_879706" data-name="Trazado 879706" d="M88.278,205.446c-1.311,0-2.622.012-3.933,0-1.144-.014-1.475-.337-1.481-1.473q-.02-3.931,0-7.863c.006-1.079.342-1.438,1.4-1.445q3.989-.029,7.978,0c1.062.007,1.421.371,1.427,1.42q.022,3.931,0,7.863c0,1.14-.341,1.484-1.46,1.5-1.311.018-2.622,0-3.933,0m-3.18-2.26h6.279v-6.292H85.1Z" transform="translate(-64.2 -150.821)" fill="#fff"/>
        <path id="Trazado_879707" data-name="Trazado 879707" d="M93.222,252.446q4.1,0,8.208,0a3.292,3.292,0,0,1,.893.053,1,1,0,0,1,.774.988.926.926,0,0,1-.68,1.034,3.721,3.721,0,0,1-.99.132q-8.207.011-16.415,0a3.5,3.5,0,0,1-.672-.033,1.132,1.132,0,0,1-1.023-1.144,1.146,1.146,0,0,1,1.137-1.027c.26-.024.524-.009.787-.009h7.983" transform="translate(-64.555 -195.603)" fill="#fff"/>
        <path id="Trazado_879708" data-name="Trazado 879708" d="M147.6,206.541c-1.012,0-2.025.007-3.037,0a3.558,3.558,0,0,1-.888-.1.991.991,0,0,1-.813-1.065,1.07,1.07,0,0,1,.905-1.006,1.852,1.852,0,0,1,.448-.024q3.374,0,6.748,0a2.137,2.137,0,0,1,.449.02,1.018,1.018,0,0,1,.9,1,.971.971,0,0,1-.783,1.08,3.679,3.679,0,0,1-.889.093c-1.012.011-2.024,0-3.036,0" transform="translate(-110.693 -158.335)" fill="#fff"/>
        <path id="Trazado_879709" data-name="Trazado 879709" d="M147.448,225.511c-1.2,0-2.4.031-3.593-.013a1,1,0,0,1-1.024-.983,1.086,1.086,0,0,1,1.048-1.094,1.735,1.735,0,0,1,.224-.009c2.321,0,4.642-.013,6.963.007.81.007,1.194.362,1.221,1.008.029.686-.376,1.073-1.246,1.094-1.2.027-2.4.007-3.594.007v-.017" transform="translate(-110.671 -173.107)" fill="#fff"/>
        <path id="Trazado_879710" data-name="Trazado 879710" d="M76.587,58.188c1.188,1.162,2.184,2.125,3.167,3.1a3.756,3.756,0,0,1,.636.774.84.84,0,0,1-.287,1.187,1.937,1.937,0,0,1-1.122.18c-.217-.02-.425-.286-.609-.469-1.224-1.214-2.449-2.428-3.658-3.657-.822-.836-.833-1.276-.034-2.086,1.448-1.467,2.915-2.915,4.373-4.37.053-.053.1-.111.159-.159a1.109,1.109,0,0,1,1.6-.1,1.073,1.073,0,0,1-.055,1.6C79.8,55.2,78.813,56.17,77.822,57.14c-.347.339-.74.631-1.235,1.048" transform="translate(-57.407 -40.519)" fill="#fff"/>
        <path id="Trazado_879711" data-name="Trazado 879711" d="M215.747,195.87c0-1.424-.011-2.848,0-4.272.012-1.18.233-1.435,1.359-1.664a13.8,13.8,0,0,0,7.3-3.941c1.01-1.033,1.407-1.037,2.4-.021a13.8,13.8,0,0,0,7.4,3.978c1.007.2,1.244.4,1.247,1.4.007,3.219.017,6.441-.081,9.658A6.737,6.737,0,0,1,232.887,206a32.816,32.816,0,0,1-6.676,4.115,1.563,1.563,0,0,1-1.271-.043c-1.957-1.1-3.918-2.2-5.79-3.43a7.485,7.485,0,0,1-3.388-6.275c-.063-1.5-.011-3-.011-4.493h0m9.963,12.172c1.429-.872,2.88-1.724,4.3-2.629a7.029,7.029,0,0,0,3.341-6.249c.017-2.136,0-4.273-.009-6.409,0-.251-.051-.5-.081-.784a16.836,16.836,0,0,1-7.672-4.111A16.691,16.691,0,0,1,217.933,192a60.217,60.217,0,0,0,.05,8.24,6.5,6.5,0,0,0,2.4,4.536,29.139,29.139,0,0,0,5.328,3.264" transform="translate(-167.159 -143.513)" fill="#fff"/>
        <path id="Trazado_879712" data-name="Trazado 879712" d="M238.516,227.28c1.1-1.894,2.029-3.507,2.965-5.119a11.768,11.768,0,0,1,.757-1.243,1.036,1.036,0,0,1,1.824.917,3.348,3.348,0,0,1-.369.81q-1.816,3.16-3.648,6.312c-.776,1.331-1.311,1.395-2.411.306-.9-.895-1.8-1.8-2.705-2.692a1.189,1.189,0,0,1-.319-1.427,1.057,1.057,0,0,1,1.785-.159c.7.675,1.323,1.423,2.122,2.294" transform="translate(-181.694 -170.842)" fill="#fff"/>
      </g>
    </g>
  </g>
</svg>
