<svg xmlns="http://www.w3.org/2000/svg" xmlns:xlink="http://www.w3.org/1999/xlink" width="107" height="107" viewBox="0 0 107 107">
  <defs>
    <clipPath id="clip-path">
      <rect id="Rectángulo_404309" data-name="Rectángulo 404309" width="76.67" height="75.948" fill="#3b57de"/>
    </clipPath>
  </defs>
  <g id="Grupo_1103356" data-name="Grupo 1103356" transform="translate(-870.134 -2341.41)">
    <path id="Elipse_5845" data-name="Elipse 5845" d="M53.5,0A53.5,53.5,0,1,1,0,53.5,53.5,53.5,0,0,1,53.5,0Z" transform="translate(870.134 2341.41)" fill="#68dd84"/>
    <g id="Grupo_1103255" data-name="Grupo 1103255" transform="translate(885.299 2358.936)">
      <g id="Grupo_1103254" data-name="Grupo 1103254" clip-path="url(#clip-path)">
        <path id="Trazado_879731" data-name="Trazado 879731" d="M9.825,48.192A7.511,7.511,0,0,1,3.636,37.207a7.518,7.518,0,0,1,.013-12.7,7.288,7.288,0,0,1,.109-7.183,7.416,7.416,0,0,1,6.2-3.777A7.526,7.526,0,0,1,20.941,7.189a7.506,7.506,0,0,1,12.678.025,8.06,8.06,0,0,1,5.975-.487c.018-1.085.019-2.071.054-3.055A3.562,3.562,0,0,1,42.078.246,4.34,4.34,0,0,1,43.614.014q14.529-.02,29.059,0A3.656,3.656,0,0,1,76.655,4q.028,12.058,0,24.116a3.666,3.666,0,0,1-4.007,3.963q-8.527.031-17.054-.01c-.872-.005-1.35.165-1.572,1.1a6.3,6.3,0,0,1-2.191,3.313c-.28.239-.571.465-.843.686a7.577,7.577,0,0,1-6.334,11.039,9.6,9.6,0,0,0-.374,1.841,2.5,2.5,0,0,0,.478,1.2q4.5,7.364,9.016,14.713a3.723,3.723,0,0,1,.539,1.269l-11.3-2.795-2.876,11.4c-.264-.356-.445-.561-.584-.792q-4.9-8.169-9.77-16.349c-.383-.645-.7-1.041-1.567-.792a3.851,3.851,0,0,1-1.885-.015,1.119,1.119,0,0,0-1.436.637Q20.187,66.49,15.43,74.415c-.262.439-.538.868-.952,1.534l-2.9-11.5L0,67.317c1.158-1.9,2.157-3.548,3.164-5.192,2.029-3.313,4.019-6.65,6.113-9.92.806-1.259,1.383-2.448.548-4.013M66.818,9.774H49.443V2.484c-2.108,0-4.085-.027-6.061.013-.84.017-1.182.423-1.262,1.272-.024.26-.014.523-.014.784q0,11.5,0,22.993a7.309,7.309,0,0,0,.043,1.007,1.1,1.1,0,0,0,1.024,1.018,8.736,8.736,0,0,0,1.119.043q13.855,0,27.711,0a8.772,8.772,0,0,0,1.119-.043,1.1,1.1,0,0,0,1.026-1.017,8.416,8.416,0,0,0,.044-1.119q0-10.992,0-21.984c0-.486.014-.973-.006-1.458-.046-1.135-.373-1.481-1.495-1.515-1.009-.03-2.019-.009-3.029-.009H66.818Zm-15.091,22.4H47.067c-1.424,13.286-13.262,20.4-24.1,17.937A19.711,19.711,0,0,1,8.554,24.676,18.848,18.848,0,0,1,18.786,13.07c7.276-3.385,14.206-2.372,20.84,2.286,0-1.947.029-3.7-.031-5.447a1.126,1.126,0,0,0-.664-.752,4.763,4.763,0,0,0-4.851.764c-.487.387-.949.8-1.522,1.292-.261-.718-.458-1.31-.689-1.888a4.9,4.9,0,0,0-9.167.044c-.228.575-.433,1.159-.689,1.848a9.161,9.161,0,0,0-1.375-1.169A7.83,7.83,0,0,0,18.024,8.9c-3.616-.424-6.179,2.609-5.385,6.222.091.413.15.834.248,1.389-2.763-.754-5.209-.746-6.834,1.813-1.794,2.826-.51,5.11,1.626,7.251l-1.693.6a4.933,4.933,0,0,0-.011,9.354l1.673.59c-.479.562-.9,1.029-1.291,1.52a4.763,4.763,0,0,0-.381,5.642,4.8,4.8,0,0,0,5.19,2.256c.534-.1,1.074-.168,1.746-.271-.115.562-.2.988-.29,1.416A4.991,4.991,0,0,0,14.9,52.191a4.866,4.866,0,0,0,5.909-.665c.381-.324.766-.644,1.281-1.076.694,2.861,1.994,4.991,5.059,5.05,3.213.061,4.65-2.077,5.362-5.065.563.487.969.853,1.39,1.2a4.8,4.8,0,0,0,2.718,1.209,4.951,4.951,0,0,0,5.336-6.222c-.089-.42-.162-.844-.234-1.223.146-.08.178-.114.205-.111.443.064.888.121,1.328.2a4.913,4.913,0,0,0,4.722-8.159c-.327-.385-.658-.765-1.061-1.233,2.194-.673,4.146-1.412,4.811-3.921M14.96,30.686a12.334,12.334,0,1,0,12.608-12.17A12.349,12.349,0,0,0,14.96,30.686M39.55,22.4c.039-.446.079-.7.081-.954a19.743,19.743,0,0,0-.026-2.241,1.6,1.6,0,0,0-.514-.929C34,13.754,28.143,12.361,21.7,14.534A17.254,17.254,0,0,0,30.8,47.751c6.73-1.534,11.082-5.742,13.127-12.313a28.369,28.369,0,0,0,.621-3.3L42.153,32c-1.425,9.74-8.772,13.482-14.315,13.647A14.8,14.8,0,0,1,20.1,17.9c5.645-3.144,13.887-2.667,19.447,4.5M15.344,69.253l.247.071,7.444-12.449-2.318-2.242a7.544,7.544,0,0,1-8.947-1.818L5.256,63.453l8.116-1.986,1.972,7.786m16.133-12.5,7.549,12.612.213-.1,1.974-7.8,8.112,1.971L42.807,52.809c-2.754,2.757-5.834,3.176-8.847,1.88l-2.483,2.063M52.089,2.535V7.3h2.3c.046-.833.087-1.563.126-2.282h2.344c.044.806.083,1.535.125,2.311h2.323c.055-.826.106-1.583.154-2.3H61.8l.112,2.293H64.24V2.535Z" transform="translate(0 -0.001)" fill="#3b57de"/>
        <rect id="Rectángulo_404305" data-name="Rectángulo 404305" width="12.174" height="2.313" transform="translate(59.489 19.822)" fill="#3b57de"/>
        <rect id="Rectángulo_404306" data-name="Rectángulo 404306" width="2.279" height="2.357" transform="translate(59.484 24.721)" fill="#3b57de"/>
        <rect id="Rectángulo_404307" data-name="Rectángulo 404307" width="2.34" height="2.3" transform="translate(64.386 24.765)" fill="#3b57de"/>
        <rect id="Rectángulo_404308" data-name="Rectángulo 404308" width="2.358" height="2.278" transform="translate(69.329 24.78)" fill="#3b57de"/>
        <path id="Trazado_879732" data-name="Trazado 879732" d="M95.666,127.784l10.109-10.19,1.686,1.574-11.829,11.8-4.409-4.508L92.851,125l2.815,2.779" transform="translate(-70.761 -91.217)" fill="#3b57de"/>
        <path id="Trazado_879733" data-name="Trazado 879733" d="M80.356,103.641H78.081c-.433-4.633,4.183-10.029,9.7-9.708v2.282c-4.383.506-6.9,2.935-7.427,7.426" transform="translate(-60.546 -72.853)" fill="#3b57de"/>
      </g>
    </g>
  </g>
</svg>
